<?xml version="1.0" encoding="UTF-8"?>
<!DOCTYPE svg PUBLIC "-//W3C//DTD SVG 1.1//EN" "http://www.w3.org/Graphics/SVG/1.1/DTD/svg11.dtd">
<svg version="1.1" xmlns="http://www.w3.org/2000/svg" xmlns:xlink="http://www.w3.org/1999/xlink" x="0px" y="0px" width="50" height="35" viewBox="0, 0, 50, 35">
  <g id="Layer 1">
    <path d="M5,17.835 L8.838,5 L45,17.173 L41.163,30 L28.214,25.644 Q27.719,25.465 27.344,25.099 Q26.969,24.734 26.778,24.216 L25.98,20.473 Q25.821,19.938 25.43,19.493 Q25.039,19.047 24.417,18.844 Q24.066,18.735 23.731,18.735 Q23.46,18.735 23.205,18.799 Q22.631,18.959 22.168,19.311 L19.361,21.819 Q18.802,22.14 18.196,22.14 Q17.845,22.14 17.462,22.027 L5,17.835 z M8.888,14.088 Q8.949,14.736 9.217,15.279 Q9.484,15.822 9.935,16.251 Q10.386,16.681 10.982,16.891 L17.541,19.09 Q17.996,19.235 18.468,19.235 Q18.625,19.235 18.782,19.219 Q19.41,19.155 19.935,18.873 Q20.459,18.592 20.847,18.117 Q21.236,17.642 21.419,17.015 L21.8,15.825 Q21.937,15.358 21.937,14.875 Q21.937,14.715 21.921,14.554 Q21.86,13.91 21.594,13.371 Q21.327,12.832 20.878,12.398 Q20.428,11.964 19.834,11.771 L10.29,8.562 L9.01,12.808 Q8.873,13.278 8.873,13.764 Q8.873,13.926 8.888,14.088 z M28.05,20.483 Q28.111,21.145 28.37,21.699 Q28.628,22.253 29.085,22.683 Q29.542,23.113 30.137,23.312 L36.788,25.541 Q37.231,25.686 37.689,25.686 Q37.842,25.686 37.994,25.67 Q38.605,25.605 39.116,25.322 Q39.628,25.038 40.017,24.56 Q40.407,24.081 40.605,23.449 L41.887,19.181 L32.357,15.98 Q31.913,15.83 31.453,15.83 Q31.3,15.83 31.147,15.846 Q30.535,15.909 30.023,16.189 Q29.512,16.468 29.124,16.938 Q28.735,17.409 28.537,18.031 L28.171,19.211 Q28.034,19.674 28.034,20.152 Q28.034,20.318 28.05,20.483 z" fill="#000000"/>
  </g>
  <defs/>
</svg>
