<?xml version="1.0" encoding="UTF-8"?>
<!DOCTYPE svg PUBLIC "-//W3C//DTD SVG 1.1//EN" "http://www.w3.org/Graphics/SVG/1.1/DTD/svg11.dtd">
<svg version="1.1" xmlns="http://www.w3.org/2000/svg" xmlns:xlink="http://www.w3.org/1999/xlink" x="0px" y="0px" width="500" height="100" viewBox="0, 0, 500, 100">
  <g id="Hubcaps">
    <g>
      <path d="M61.118,63.735 Q60.73,64.47 60.293,65.206 Q59.855,65.941 59.37,66.676 Q58.398,68.515 57.475,70.476 Q56.552,72.436 56.164,74.52 Q56.067,75.01 56.018,75.561 Q55.969,76.113 55.969,76.603 Q55.969,78.074 56.261,79.544 Q56.552,81.015 56.844,82.485 Q56.844,82.73 56.893,82.976 Q56.941,83.22 57.038,83.466 Q56.164,83.711 54.998,84.201 Q53.832,84.691 52.667,85.059 Q52.569,85.181 52.424,85.181 Q52.278,85.181 52.181,85.304 Q50.529,86.039 49.072,86.713 Q47.615,87.387 46.838,87.387 Q45.867,87.387 45.138,86.162 Q44.41,84.936 44.41,83.343 Q44.41,81.493 44.798,79.644 Q45.187,77.794 45.77,75.821 Q46.255,74.341 46.838,72.861 Q47.421,71.381 48.004,69.901 Q48.684,68.298 49.364,66.696 Q50.044,65.092 50.529,63.735 Q46.061,64.229 41.689,64.785 Q37.318,65.34 32.946,66.696 Q32.363,67.438 31.781,68.24 Q31.198,69.041 30.615,69.905 Q30.421,70.152 30.178,70.523 Q29.935,70.893 29.643,71.139 Q27.798,73.607 26.049,76.138 Q24.301,78.667 22.843,81.505 Q21.095,84.691 20.124,86.1 Q19.152,87.51 18.278,88 Q17.986,88.122 17.695,88.184 Q17.404,88.245 17.015,88.245 Q16.821,88.245 16.675,88.245 Q16.529,88.245 16.335,88.122 Q14.975,87.755 13.81,86.284 Q12.643,84.814 12.643,83.098 Q12.643,81.995 13.664,79.973 Q14.684,77.951 15.946,75.745 Q16.238,75.377 16.481,75.01 Q16.724,74.642 16.918,74.275 Q18.083,72.314 19.201,70.659 Q20.318,69.005 20.804,68.147 Q19.832,68.27 18.909,68.331 Q17.986,68.392 17.015,68.392 Q14.1,68.392 12.643,67.044 Q11.186,65.696 11.186,63 Q11.186,62.387 11.332,61.652 Q11.477,60.917 11.672,60.182 Q11.964,59.323 12.4,58.527 Q12.838,57.731 13.323,56.995 Q13.518,56.75 13.712,56.505 Q13.906,56.26 14.1,56.015 Q14.78,55.28 15.364,54.728 Q15.946,54.176 16.141,54.176 Q16.432,54.176 16.772,54.299 Q17.112,54.422 17.404,54.544 Q17.695,54.667 18.035,54.79 Q18.375,54.912 18.666,54.912 Q19.249,54.912 21.678,54.238 Q24.107,53.564 26.826,52.706 Q29.158,51.971 31.343,51.358 Q33.529,50.745 34.501,50.5 L43.924,38.368 L53.638,24.642 Q55.969,21.456 56.941,19.556 Q57.913,17.657 57.913,16.309 Q57.913,15.083 57.135,14.593 Q56.358,14.103 54.61,14.103 Q51.21,14.103 47.518,14.961 Q43.826,15.819 40.038,17.289 Q36.638,18.515 33.286,20.108 Q29.935,21.701 26.826,23.417 Q25.467,24.152 24.107,24.887 Q22.746,25.623 21.483,26.358 Q22.164,26.726 22.503,27.093 Q22.843,27.461 22.843,28.074 Q22.843,29.422 21.289,30.402 Q19.735,31.382 17.889,32.24 Q16.724,32.73 15.655,33.159 Q14.587,33.588 13.906,34.078 Q13.129,34.569 12.158,35.304 Q11.186,36.039 10.118,36.775 Q9.632,37.142 9.195,37.448 Q8.758,37.755 8.272,38 Q6.912,38.98 5.601,39.593 Q4.289,40.206 3.221,40.206 Q2.152,40.206 1.327,38.552 Q0.5,36.897 0.5,34.569 Q0.5,33.956 0.597,33.159 Q0.695,32.363 0.792,31.628 Q0.889,31.015 0.986,30.463 Q1.083,29.912 1.181,29.422 Q2.638,23.784 4.483,21.211 Q6.329,18.637 9.632,16.677 Q10.506,16.186 11.477,15.696 Q12.449,15.206 13.615,14.593 Q24.01,9.324 34.695,5.647 Q45.381,1.971 56.552,1.358 Q61.215,1.358 64.276,4.054 Q67.335,6.75 67.335,13.245 Q67.335,13.98 67.287,14.654 Q67.238,15.328 67.141,15.941 Q66.656,19.373 64.518,23.233 Q62.381,27.093 57.718,33.221 Q56.358,35.059 54.998,36.836 Q53.638,38.613 52.278,40.451 Q50.821,42.289 49.461,44.066 Q48.101,45.843 46.741,47.681 Q49.266,47.191 50.967,46.885 Q52.667,46.578 54.221,46.333 Q55.193,46.211 56.212,46.088 Q57.232,45.965 58.398,45.843 Q59.078,45.843 59.855,45.782 Q60.632,45.72 61.507,45.598 Q65.975,38.368 70.541,31.199 Q75.107,24.029 79.77,16.922 Q82.684,12.51 83.996,10.978 Q85.307,9.446 86.084,9.446 Q86.764,9.446 87.298,10.365 Q87.833,11.284 87.833,12.387 Q87.833,13.368 87.784,14.226 Q87.736,15.083 87.541,15.819 Q87.056,18.147 85.453,20.966 Q83.85,23.784 79.964,29.544 Q77.244,33.466 74.622,37.448 Q71.998,41.431 69.375,45.475 Q73.65,45.598 75.787,45.842 Q77.924,46.085 79.673,46.815 Q80.255,47.181 80.985,47.607 Q81.712,48.033 82.49,48.519 Q80.742,50.345 79.43,51.746 Q78.118,53.145 77.147,54.484 Q76.467,55.215 75.933,55.945 Q75.398,56.675 74.815,57.528 Q73.941,58.989 72.969,60.692 Q71.998,62.396 70.832,64.593 Q68.404,63.98 66.995,63.798 Q65.587,63.614 64.324,63.614 Q63.838,63.614 63.013,63.614 Q62.187,63.614 61.118,63.735 L61.118,63.735 z M161.953,60.794 L162.148,63 Q162.342,63.858 162.342,64.287 Q162.342,64.716 162.342,64.716 Q162.342,66.186 159.962,69.189 Q157.582,72.191 153.988,75.5 Q152.336,76.971 150.587,78.441 Q148.839,79.912 147.09,81.26 Q143.593,83.833 140.339,85.488 Q137.085,87.142 134.85,87.142 Q131.936,87.142 129.75,84.507 Q127.565,81.873 127.565,78.196 Q127.565,76.971 127.662,75.745 Q127.759,74.52 127.953,73.294 Q128.828,68.025 131.062,62.816 Q133.296,57.608 135.725,52.829 Q137.085,50.133 138.396,47.62 Q139.708,45.108 140.776,42.779 Q138.736,45.23 133.928,51.052 Q129.119,56.873 123.484,63.368 Q122.611,64.348 121.688,65.39 Q120.764,66.431 119.89,67.412 Q113.479,74.52 107.747,79.851 Q102.016,85.181 99.393,85.181 Q96.09,85.181 93.467,81.566 Q90.844,77.951 90.844,73.417 Q90.844,70.476 92.01,67.044 Q93.176,63.613 95.021,60.182 Q96.284,57.731 97.693,55.402 Q99.101,53.074 100.558,50.99 Q102.599,47.804 104.59,45.169 Q106.582,42.534 107.941,40.573 L119.307,24.765 Q120.182,23.539 120.619,22.743 Q121.056,21.946 121.056,21.456 Q121.056,21.333 121.056,21.272 Q121.056,21.211 121.056,21.211 Q120.959,20.843 120.667,20.475 Q120.376,20.108 120.085,20.108 Q118.628,20.108 113.964,23.049 Q109.301,25.99 103.667,29.544 Q102.988,30.034 102.307,30.463 Q101.627,30.892 100.947,31.26 Q95.992,34.446 91.379,36.775 Q86.764,39.103 84.044,39.103 Q82.976,39.103 82.344,38.429 Q81.712,37.755 81.712,36.652 Q81.712,34.078 83.072,30.647 Q84.433,27.216 87.736,21.578 Q88.901,19.495 89.824,18.086 Q90.747,16.677 91.524,15.696 Q92.204,14.961 92.835,14.287 Q93.467,13.613 94.245,13 Q94.536,12.755 94.876,12.51 Q95.215,12.265 95.604,12.02 Q96.187,11.529 96.867,11.101 Q97.547,10.672 98.324,10.304 Q101.238,8.588 105.027,7.056 Q108.816,5.524 112.799,4.177 Q117.559,2.706 121.93,1.725 Q126.302,0.745 129.216,0.745 Q132.033,0.745 133.685,3.257 Q135.336,5.77 135.336,10.059 Q135.336,10.549 135.336,10.978 Q135.336,11.407 135.239,11.897 Q134.947,15.574 132.956,19.556 Q130.965,23.539 126.788,29.544 Q125.816,30.892 122.659,35.426 Q119.502,39.961 115.81,45.475 Q115.421,46.088 115.081,46.64 Q114.741,47.191 114.353,47.681 Q110.564,53.564 107.553,58.772 Q104.541,63.98 104.541,65.696 Q104.541,66.431 105.173,67.044 Q105.804,67.657 106.484,67.657 Q109.01,67.657 116.248,60.304 Q123.484,52.951 131.645,43.515 Q132.519,42.412 133.441,41.37 Q134.365,40.328 135.239,39.348 Q142.719,30.525 148.936,22.681 Q155.154,14.838 157.096,12.142 Q158.845,9.691 160.059,8.711 Q161.273,7.73 162.342,7.73 Q163.993,7.73 165.111,9.998 Q166.227,12.265 166.227,15.574 Q166.227,18.637 162.002,25.99 Q157.776,33.343 152.628,41.799 Q152.239,42.534 151.802,43.269 Q151.365,44.005 150.879,44.74 Q146.313,52.461 142.671,59.691 Q139.028,66.921 139.028,71.211 Q139.028,73.172 139.95,74.581 Q140.873,75.99 142.233,75.99 Q144.079,75.99 146.216,74.826 Q148.353,73.662 150.685,71.823 Q151.948,70.843 153.211,69.74 Q154.474,68.637 155.639,67.412 Q157.485,65.574 159.136,63.858 Q160.788,62.142 161.953,60.917 L161.953,60.794 z M193.72,45.353 Q195.857,45.843 199.694,46.517 Q203.532,47.191 207.708,48.416 Q213.732,50.133 218.685,53.135 Q223.639,56.137 223.639,61.039 Q223.639,62.755 222.863,64.838 Q222.087,66.921 220.724,68.882 Q219.365,70.843 217.617,72.681 Q215.869,74.52 213.634,76.235 Q209.263,79.544 204.259,81.873 Q199.256,84.201 194.204,85.181 Q192.165,85.549 190.125,85.794 Q188.085,86.039 186.046,86.039 Q178.468,86.039 173.854,82.547 Q169.239,79.054 169.239,73.172 Q169.239,71.456 169.676,69.618 Q170.114,67.78 170.794,65.941 Q171.765,63.368 173.125,60.917 Q174.485,58.466 175.942,56.137 Q177.107,54.422 178.176,52.829 Q179.245,51.235 180.119,49.887 Q176.039,49.642 173.902,48.478 Q171.765,47.314 171.765,45.475 Q171.765,43.147 174.388,41.86 Q177.011,40.573 180.217,39.838 Q182.645,39.348 184.879,39.042 Q187.114,38.735 188.085,38.49 Q189.251,37.02 190.465,35.426 Q191.679,33.833 192.943,32.24 Q196.439,27.828 200.567,24.213 Q204.696,20.598 209.263,20.598 Q209.749,20.598 209.942,20.782 Q210.137,20.966 210.137,21.456 Q210.137,22.314 208.387,24.949 Q206.639,27.583 204.502,30.647 Q204.502,30.892 204.405,31.015 Q204.309,31.137 204.211,31.26 Q203.239,32.485 202.366,33.772 Q201.49,35.059 200.713,36.162 Q201.588,36.039 202.463,35.855 Q203.336,35.672 204.114,35.549 Q208.485,34.814 211.4,33.895 Q214.314,32.976 217.035,31.628 Q217.715,31.382 218.394,30.953 Q219.074,30.525 219.852,30.157 Q221.309,29.299 222.57,28.257 Q223.835,27.216 224.903,26.235 Q226.262,24.887 227.04,23.539 Q227.817,22.191 227.817,21.088 Q227.817,18.515 225.39,17.105 Q222.959,15.696 218.685,15.696 Q210.429,15.696 202.511,17.841 Q194.593,19.985 186.823,23.417 Q187.114,23.662 187.357,23.846 Q187.599,24.029 187.794,24.275 Q187.892,24.52 187.988,24.703 Q188.085,24.887 188.085,25.132 Q188.085,26.48 186.628,27.154 Q185.171,27.828 183.131,28.319 Q182.256,28.564 181.333,28.809 Q180.41,29.054 179.439,29.299 Q178.953,29.422 178.468,29.605 Q177.982,29.789 177.496,29.912 Q176.719,30.157 175.845,30.586 Q174.97,31.015 174.097,31.505 Q173.805,31.628 173.562,31.75 Q173.32,31.873 173.028,31.995 Q171.862,32.608 170.744,33.037 Q169.628,33.466 168.559,33.466 Q167.296,33.466 166.616,32.669 Q165.936,31.873 165.936,30.279 Q165.936,30.034 165.936,29.789 Q165.936,29.544 166.034,29.299 Q166.131,28.441 166.519,27.399 Q166.907,26.358 167.976,24.52 Q169.239,22.069 170.308,20.23 Q171.376,18.392 172.445,16.922 Q174.097,14.471 176.088,12.877 Q178.08,11.284 181.382,9.936 Q182.063,9.569 182.791,9.262 Q183.52,8.956 184.297,8.711 Q194.108,5.034 202.024,3.319 Q209.942,1.603 217.13,1.603 Q225.776,1.603 230.924,5.402 Q236.074,9.201 236.074,15.696 Q236.074,25.255 228.933,30.647 Q221.793,36.039 213.245,38.858 Q208.194,40.451 203.482,41.554 Q198.771,42.657 195.468,43.392 L193.72,45.353 L193.72,45.353 z M189.542,51.235 Q188.96,52.216 187.842,53.625 Q186.725,55.035 185.462,56.627 Q185.073,57.118 184.685,57.669 Q184.297,58.221 184.004,58.833 Q182.742,60.672 181.819,62.387 Q180.897,64.103 180.897,65.329 Q180.897,68.392 183.762,70.353 Q186.628,72.314 191.194,72.314 Q192.845,72.314 195.419,71.701 Q197.994,71.088 200.811,69.863 Q205.182,68.147 208.874,65.39 Q212.566,62.633 212.566,59.691 Q212.566,56.995 208.826,55.402 Q205.084,53.809 200.52,52.951 Q197.119,52.216 194.059,51.909 Q190.999,51.603 189.542,51.358 L189.542,51.235 z M273.862,36.897 Q274.738,36.039 275.611,35.059 Q276.486,34.078 277.361,33.098 Q282.801,26.726 286.152,20.904 Q289.503,15.083 289.503,11.775 Q289.503,10.549 288.921,9.814 Q288.338,9.078 287.366,9.078 Q284.647,9.078 279.643,12.694 Q274.64,16.309 268.327,23.049 Q266.093,25.377 263.567,28.319 Q261.042,31.26 258.418,34.691 Q254.145,40.206 250.111,46.824 Q246.081,53.441 243.556,60.182 Q242.098,63.98 241.27,67.78 Q240.445,71.578 240.445,75.132 Q240.445,81.137 243.069,84.691 Q245.692,88.245 250.064,88.245 Q253.756,88.245 257.739,86.713 Q261.721,85.181 265.799,82.73 Q269.977,80.034 274.153,76.603 Q278.332,73.172 282.217,69.495 Q285.326,66.554 288.143,63.735 Q290.96,60.917 293.292,58.466 Q293.388,59.078 293.388,59.63 Q293.388,60.182 293.388,60.794 Q293.388,63.49 291.397,66.676 Q289.407,69.863 284.451,75.132 Q272.016,88.122 262.401,94.311 Q252.782,100.5 244.719,100.5 Q236.56,100.5 231.557,94.495 Q226.553,88.49 226.553,78.196 Q226.553,71.701 228.984,63.858 Q231.411,56.015 235.881,47.926 Q238.795,42.412 242.535,37.081 Q246.274,31.75 250.645,26.848 Q252.589,24.642 255.162,22.007 Q257.739,19.373 260.748,16.677 Q263.371,14.348 266.188,12.081 Q269.007,9.814 271.823,7.73 Q276.292,4.667 280.516,2.706 Q284.743,0.745 288.241,0.745 Q292.806,0.745 295.38,3.748 Q297.955,6.75 297.955,12.02 Q297.955,16.064 296.255,21.027 Q294.554,25.99 291.738,31.137 Q288.823,36.407 285.131,41.431 Q281.44,46.456 277.554,50.623 Q272.892,55.525 268.52,58.65 Q264.149,61.774 261.234,61.774 Q258.902,61.774 257.495,60.182 Q256.085,58.588 256.085,55.892 Q256.085,55.035 256.329,54.115 Q256.572,53.196 256.961,52.216 Q257.444,51.113 258.124,50.01 Q258.807,48.907 259.585,48.049 L268.034,38.49 L271.144,34.936 Q271.239,34.936 271.337,34.814 Q271.435,34.691 271.628,34.569 Q271.921,34.324 272.26,34.14 Q272.601,33.956 272.794,33.956 Q273.28,33.956 273.717,34.507 Q274.153,35.059 274.153,35.672 Q274.153,35.917 274.106,36.223 Q274.058,36.529 273.862,37.02 L273.862,36.897 z M316.995,58.956 L296.303,84.691 Q293.972,87.755 292.417,89.226 Q290.863,90.696 289.503,91.186 Q289.018,91.431 288.532,91.492 Q288.046,91.554 287.463,91.554 Q286.006,91.554 285.229,90.88 Q284.451,90.206 284.451,88.98 Q284.451,87.387 285.763,84.875 Q287.075,82.363 289.114,79.667 Q290.183,78.319 291.397,76.971 Q292.612,75.623 293.875,74.397 Q294.36,73.907 294.797,73.539 Q295.235,73.172 295.527,72.804 Q295.818,72.559 296.158,72.314 Q296.498,72.069 296.789,71.823 Q297.566,71.333 298.537,70.782 Q299.509,70.231 300.966,69.495 L308.447,58.956 L303.2,59.201 Q302.909,59.323 302.52,59.323 Q302.132,59.323 301.743,59.201 Q300.772,59.078 299.995,58.527 Q299.217,57.976 299.217,56.627 Q299.217,55.28 300.14,53.748 Q301.064,52.216 303.686,49.152 Q304.561,48.171 305.338,47.314 Q306.114,46.456 306.892,45.72 Q309.418,43.269 312.186,41.86 Q314.955,40.451 318.743,40.451 Q319.521,40.451 319.909,40.635 Q320.297,40.819 320.297,41.309 Q320.297,42.167 319.229,42.473 Q318.161,42.779 316.8,43.024 Q316.8,43.024 316.752,43.024 Q316.704,43.024 316.606,43.024 Q315.344,43.147 314.324,43.392 Q313.303,43.637 313.303,44.495 Q313.303,44.985 313.692,45.353 Q314.081,45.72 314.76,45.72 Q315.732,45.72 316.752,45.659 Q317.772,45.598 318.743,45.475 Q319.229,45.475 319.763,45.414 Q320.297,45.353 320.783,45.353 Q323.99,41.922 327.729,37.816 Q331.469,33.711 335.452,29.544 Q336.715,28.196 338.026,26.848 Q339.338,25.5 340.698,24.152 Q345.07,19.618 349.343,15.574 Q353.618,11.529 357.406,8.588 Q361.293,5.279 363.673,3.748 Q366.053,2.216 367.316,2.216 Q368.578,2.216 369.598,3.503 Q370.618,4.789 370.715,6.382 Q370.715,6.505 370.715,6.566 Q370.715,6.627 370.715,6.75 Q370.715,7.118 370.715,7.547 Q370.715,7.975 370.618,8.343 Q370.522,9.446 369.987,10.917 Q369.453,12.387 368.286,14.961 L355.95,42.289 L361.389,42.044 Q361.487,42.044 361.535,42.044 Q361.584,42.044 361.68,42.044 Q361.972,42.044 362.215,42.044 Q362.457,42.044 362.749,42.167 Q363.138,42.289 363.526,42.412 Q363.915,42.534 364.402,42.779 Q363.526,44.005 362.896,45.046 Q362.264,46.088 361.68,47.069 Q361.487,47.436 361.244,47.865 Q361.001,48.294 360.807,48.784 Q360.03,50.255 359.155,52.032 Q358.281,53.809 357.115,56.627 L349.343,56.995 Q348.955,57.976 348.129,59.63 Q347.303,61.284 346.429,63.245 Q346.235,63.613 346.09,63.858 Q345.944,64.103 345.847,64.47 Q344.778,66.676 344.002,68.698 Q343.224,70.721 343.224,71.701 Q343.224,72.314 343.613,72.865 Q344.002,73.417 344.584,73.662 Q344.681,73.662 344.826,73.723 Q344.972,73.784 345.07,73.784 Q346.138,73.784 347.693,72.559 Q349.246,71.333 353.424,67.167 L355.172,70.231 Q354.104,71.578 352.841,73.11 Q351.578,74.642 350.218,76.235 Q347.499,79.176 344.438,81.873 Q341.378,84.569 338.269,85.427 Q337.589,85.549 336.957,85.671 Q336.327,85.794 335.647,85.794 Q333.606,85.794 332.149,83.956 Q330.692,82.118 330.692,79.544 Q330.692,78.441 330.838,77.338 Q330.984,76.235 331.178,75.132 Q331.761,72.191 332.927,69.372 Q334.092,66.554 335.355,63.98 Q336.035,62.387 336.715,60.978 Q337.395,59.569 337.978,58.221 L316.995,58.956 L316.995,58.956 z M345.166,42.779 L358.379,14.961 Q354.59,18.515 351.772,21.211 Q348.955,23.907 346.332,26.48 Q345.847,26.971 345.313,27.522 Q344.778,28.074 344.292,28.564 Q341.28,31.628 338.026,35.304 Q334.773,38.98 330.207,44.128 L345.166,42.779 L345.166,42.779 z M399.762,17.657 Q393.155,18.515 386.55,19.801 Q379.944,21.088 373.629,23.662 Q370.91,24.887 369.696,25.255 Q368.481,25.623 367.509,25.745 Q367.316,25.745 367.169,25.745 Q367.024,25.745 366.829,25.745 Q366.15,25.745 365.761,25.439 Q365.372,25.132 365.372,24.642 Q365.372,23.539 366.247,21.456 Q367.122,19.373 368.286,17.044 Q368.578,16.554 368.82,16.125 Q369.064,15.696 369.259,15.206 Q370.618,12.755 371.784,10.855 Q372.95,8.956 373.145,8.711 Q375.767,5.892 383.683,3.625 Q391.601,1.358 400.539,0.745 Q401.995,0.623 403.356,0.561 Q404.717,0.5 406.076,0.5 Q407.532,0.5 408.943,0.561 Q410.35,0.623 411.807,0.745 Q420.744,1.48 428.223,6.321 Q435.706,11.162 435.706,24.887 Q435.706,41.186 425.843,50.684 Q415.984,60.182 404.132,63.613 Q400.635,64.593 397.186,65.083 Q393.738,65.574 390.533,65.574 Q390.241,65.574 389.95,65.574 Q389.659,65.574 389.367,65.574 Q387.909,65.574 385.967,65.39 Q384.025,65.206 380.042,64.716 L375.961,72.804 Q376.933,73.172 377.37,73.784 Q377.807,74.397 377.807,75.255 Q377.807,75.99 376.786,78.135 Q375.767,80.279 374.31,82.73 Q373.727,83.833 373.047,84.814 Q372.368,85.794 371.686,86.775 Q370.423,88.368 369.259,89.409 Q368.093,90.451 367.218,90.451 Q365.663,90.451 364.789,89.287 Q363.915,88.122 363.915,86.039 Q363.915,84.078 364.886,81.076 Q365.858,78.074 367.316,74.887 Q367.704,73.907 368.141,73.049 Q368.578,72.191 368.967,71.333 Q370.23,68.76 371.346,66.554 Q372.464,64.348 373.241,62.755 Q372.076,61.774 371.299,60.917 Q370.522,60.059 370.036,59.323 Q369.55,58.343 369.307,57.363 Q369.064,56.382 369.064,55.035 Q369.064,52.829 370.084,51.113 Q371.104,49.397 373.727,47.804 Q375.475,46.701 378.098,45.598 Q380.721,44.495 384.413,43.147 L399.762,17.657 L399.762,17.657 z M405.299,17.044 Q405.201,18.882 405.056,19.924 Q404.909,20.966 404.425,21.946 Q404.327,22.191 404.182,22.375 Q404.036,22.559 403.939,22.804 L393.059,41.431 Q393.837,41.431 394.563,41.309 Q395.293,41.186 396.07,41.064 Q396.751,41.064 397.528,41.003 Q398.304,40.941 398.984,40.941 Q399.665,40.941 400.101,41.309 Q400.539,41.677 400.539,42.289 Q400.539,42.779 400.101,43.147 Q399.665,43.515 399.179,43.76 Q398.11,44.128 397.091,44.434 Q396.07,44.74 395.001,45.108 Q393.933,45.353 392.913,45.72 Q391.892,46.088 390.823,46.456 L388.687,50.377 Q391.7,50.867 393.302,50.99 Q394.905,51.113 396.166,51.113 Q396.361,51.113 396.508,51.113 Q396.652,51.113 396.751,51.113 Q398.597,51.113 400.539,50.867 Q402.481,50.623 404.425,50.133 Q410.254,48.539 415.645,45.292 Q421.035,42.044 424.145,37.755 Q425.018,36.529 425.795,34.998 Q426.573,33.466 427.255,31.75 Q427.932,30.034 428.323,28.441 Q428.71,26.848 428.71,25.623 Q428.71,22.191 424.727,20.537 Q420.744,18.882 416.082,18.147 Q413.07,17.657 410.254,17.473 Q407.436,17.289 405.59,17.167 Q405.494,17.167 405.443,17.167 Q405.395,17.167 405.299,17.167 L405.299,17.044 z M486.801,18.025 Q485.638,18.27 484.421,18.392 Q483.21,18.515 482.041,18.637 Q476.021,19.373 470.142,20.904 Q464.263,22.436 458.826,25.623 Q458.34,25.868 457.319,26.542 Q456.297,27.216 455.229,28.074 Q454.452,28.686 453.726,29.36 Q452.997,30.034 452.511,30.77 Q451.929,31.382 451.638,31.995 Q451.346,32.608 451.346,33.221 Q451.346,34.201 452.024,34.936 Q452.707,35.672 454.161,36.407 Q455.229,36.897 456.64,37.387 Q458.049,37.877 459.895,38.49 L470.091,41.186 Q471.843,41.799 474.027,42.534 Q476.212,43.269 478.544,44.25 Q483.109,46.211 486.949,49.703 Q490.784,53.196 490.784,58.833 Q490.784,71.823 477.672,79.115 Q464.555,86.407 441.144,86.407 Q434.734,86.407 431.285,84.691 Q427.837,82.976 427.837,79.789 Q427.837,78.809 428.223,77.522 Q428.614,76.235 429.196,74.887 Q429.877,73.294 430.799,71.823 Q431.723,70.353 432.693,69.25 Q433.179,68.637 433.713,68.27 Q434.247,67.902 434.734,67.657 Q436.871,66.676 438.62,66.002 Q440.367,65.329 440.949,65.329 Q441.435,65.329 441.583,65.512 Q441.726,65.696 441.726,66.309 Q441.726,67.044 441.144,67.718 Q440.562,68.392 439.88,68.882 Q439.494,69.25 439.103,69.556 Q438.716,69.863 438.426,70.108 Q440.949,70.231 442.603,70.292 Q444.254,70.353 445.032,70.353 Q446.682,70.353 448.38,70.292 Q450.083,70.231 451.733,70.108 Q458.826,69.618 465.818,67.657 Q472.813,65.696 479.126,61.407 Q479.903,60.917 480.438,60.304 Q480.972,59.691 481.364,58.956 Q481.458,58.711 481.556,58.343 Q481.654,57.976 481.654,57.731 Q481.654,56.995 480.972,56.137 Q480.295,55.28 479.031,54.422 Q476.989,52.951 473.832,51.664 Q470.676,50.377 467.083,49.52 L451.053,45.72 Q445.709,44.618 443.429,42.167 Q441.144,39.716 441.144,35.059 Q441.144,33.588 441.34,31.75 Q441.534,29.912 441.922,28.074 Q442.31,25.745 442.99,23.478 Q443.672,21.211 444.349,19.618 Q446.878,14.593 453.288,10.917 Q459.699,7.24 466.887,5.034 Q472.425,3.319 477.523,2.461 Q482.624,1.603 486.024,1.603 Q494.185,1.603 497.342,2.89 Q500.5,4.177 500.5,7.608 Q500.5,13.368 498.992,16.125 Q497.488,18.882 493.116,20.966 Q492.921,21.088 492.729,21.15 Q492.534,21.211 492.338,21.333 Q491.466,21.701 490.154,22.62 Q488.842,23.539 487.384,24.52 Q487.287,24.642 487.192,24.703 Q487.092,24.765 486.997,24.765 Q485.055,26.235 483.401,27.399 Q481.749,28.564 481.364,28.564 Q480.78,28.564 480.295,28.074 Q479.809,27.583 479.809,26.848 Q479.809,26.726 479.809,26.603 Q479.809,26.48 479.903,26.358 Q480.003,25.868 480.245,25.439 Q480.487,25.01 480.972,24.52 L486.801,18.025 L486.801,18.025 z" fill="url(#Gradient_1)"/>
      <path d="M61.118,63.735 Q60.73,64.47 60.293,65.206 Q59.855,65.941 59.37,66.676 Q58.398,68.515 57.475,70.476 Q56.552,72.436 56.164,74.52 Q56.067,75.01 56.018,75.561 Q55.969,76.113 55.969,76.603 Q55.969,78.074 56.261,79.544 Q56.552,81.015 56.844,82.485 Q56.844,82.73 56.893,82.976 Q56.941,83.22 57.038,83.466 Q56.164,83.711 54.998,84.201 Q53.832,84.691 52.667,85.059 Q52.569,85.181 52.424,85.181 Q52.278,85.181 52.181,85.304 Q50.529,86.039 49.072,86.713 Q47.615,87.387 46.838,87.387 Q45.867,87.387 45.138,86.162 Q44.41,84.936 44.41,83.343 Q44.41,81.493 44.798,79.644 Q45.187,77.794 45.77,75.821 Q46.255,74.341 46.838,72.861 Q47.421,71.381 48.004,69.901 Q48.684,68.298 49.364,66.696 Q50.044,65.092 50.529,63.735 Q46.061,64.229 41.689,64.785 Q37.318,65.34 32.946,66.696 Q32.363,67.438 31.781,68.24 Q31.198,69.041 30.615,69.905 Q30.421,70.152 30.178,70.523 Q29.935,70.893 29.643,71.139 Q27.798,73.607 26.049,76.138 Q24.301,78.667 22.843,81.505 Q21.095,84.691 20.124,86.1 Q19.152,87.51 18.278,88 Q17.986,88.122 17.695,88.184 Q17.404,88.245 17.015,88.245 Q16.821,88.245 16.675,88.245 Q16.529,88.245 16.335,88.122 Q14.975,87.755 13.81,86.284 Q12.643,84.814 12.643,83.098 Q12.643,81.995 13.664,79.973 Q14.684,77.951 15.946,75.745 Q16.238,75.377 16.481,75.01 Q16.724,74.642 16.918,74.275 Q18.083,72.314 19.201,70.659 Q20.318,69.005 20.804,68.147 Q19.832,68.27 18.909,68.331 Q17.986,68.392 17.015,68.392 Q14.1,68.392 12.643,67.044 Q11.186,65.696 11.186,63 Q11.186,62.387 11.332,61.652 Q11.477,60.917 11.672,60.182 Q11.964,59.323 12.4,58.527 Q12.838,57.731 13.323,56.995 Q13.518,56.75 13.712,56.505 Q13.906,56.26 14.1,56.015 Q14.78,55.28 15.364,54.728 Q15.946,54.176 16.141,54.176 Q16.432,54.176 16.772,54.299 Q17.112,54.422 17.404,54.544 Q17.695,54.667 18.035,54.79 Q18.375,54.912 18.666,54.912 Q19.249,54.912 21.678,54.238 Q24.107,53.564 26.826,52.706 Q29.158,51.971 31.343,51.358 Q33.529,50.745 34.501,50.5 L43.924,38.368 L53.638,24.642 Q55.969,21.456 56.941,19.556 Q57.913,17.657 57.913,16.309 Q57.913,15.083 57.135,14.593 Q56.358,14.103 54.61,14.103 Q51.21,14.103 47.518,14.961 Q43.826,15.819 40.038,17.289 Q36.638,18.515 33.286,20.108 Q29.935,21.701 26.826,23.417 Q25.467,24.152 24.107,24.887 Q22.746,25.623 21.483,26.358 Q22.164,26.726 22.503,27.093 Q22.843,27.461 22.843,28.074 Q22.843,29.422 21.289,30.402 Q19.735,31.382 17.889,32.24 Q16.724,32.73 15.655,33.159 Q14.587,33.588 13.906,34.078 Q13.129,34.569 12.158,35.304 Q11.186,36.039 10.118,36.775 Q9.632,37.142 9.195,37.448 Q8.758,37.755 8.272,38 Q6.912,38.98 5.601,39.593 Q4.289,40.206 3.221,40.206 Q2.152,40.206 1.327,38.552 Q0.5,36.897 0.5,34.569 Q0.5,33.956 0.597,33.159 Q0.695,32.363 0.792,31.628 Q0.889,31.015 0.986,30.463 Q1.083,29.912 1.181,29.422 Q2.638,23.784 4.483,21.211 Q6.329,18.637 9.632,16.677 Q10.506,16.186 11.477,15.696 Q12.449,15.206 13.615,14.593 Q24.01,9.324 34.695,5.647 Q45.381,1.971 56.552,1.358 Q61.215,1.358 64.276,4.054 Q67.335,6.75 67.335,13.245 Q67.335,13.98 67.287,14.654 Q67.238,15.328 67.141,15.941 Q66.656,19.373 64.518,23.233 Q62.381,27.093 57.718,33.221 Q56.358,35.059 54.998,36.836 Q53.638,38.613 52.278,40.451 Q50.821,42.289 49.461,44.066 Q48.101,45.843 46.741,47.681 Q49.266,47.191 50.967,46.885 Q52.667,46.578 54.221,46.333 Q55.193,46.211 56.212,46.088 Q57.232,45.965 58.398,45.843 Q59.078,45.843 59.855,45.782 Q60.632,45.72 61.507,45.598 Q65.975,38.368 70.541,31.199 Q75.107,24.029 79.77,16.922 Q82.684,12.51 83.996,10.978 Q85.307,9.446 86.084,9.446 Q86.764,9.446 87.298,10.365 Q87.833,11.284 87.833,12.387 Q87.833,13.368 87.784,14.226 Q87.736,15.083 87.541,15.819 Q87.056,18.147 85.453,20.966 Q83.85,23.784 79.964,29.544 Q77.244,33.466 74.622,37.448 Q71.998,41.431 69.375,45.475 Q73.65,45.598 75.787,45.842 Q77.924,46.085 79.673,46.815 Q80.255,47.181 80.985,47.607 Q81.712,48.033 82.49,48.519 Q80.742,50.345 79.43,51.746 Q78.118,53.145 77.147,54.484 Q76.467,55.215 75.933,55.945 Q75.398,56.675 74.815,57.528 Q73.941,58.989 72.969,60.692 Q71.998,62.396 70.832,64.593 Q68.404,63.98 66.995,63.798 Q65.587,63.614 64.324,63.614 Q63.838,63.614 63.013,63.614 Q62.187,63.614 61.118,63.735 L61.118,63.735 z M161.953,60.794 L162.148,63 Q162.342,63.858 162.342,64.287 Q162.342,64.716 162.342,64.716 Q162.342,66.186 159.962,69.189 Q157.582,72.191 153.988,75.5 Q152.336,76.971 150.587,78.441 Q148.839,79.912 147.09,81.26 Q143.593,83.833 140.339,85.488 Q137.085,87.142 134.85,87.142 Q131.936,87.142 129.75,84.507 Q127.565,81.873 127.565,78.196 Q127.565,76.971 127.662,75.745 Q127.759,74.52 127.953,73.294 Q128.828,68.025 131.062,62.816 Q133.296,57.608 135.725,52.829 Q137.085,50.133 138.396,47.62 Q139.708,45.108 140.776,42.779 Q138.736,45.23 133.928,51.052 Q129.119,56.873 123.484,63.368 Q122.611,64.348 121.688,65.39 Q120.764,66.431 119.89,67.412 Q113.479,74.52 107.747,79.851 Q102.016,85.181 99.393,85.181 Q96.09,85.181 93.467,81.566 Q90.844,77.951 90.844,73.417 Q90.844,70.476 92.01,67.044 Q93.176,63.613 95.021,60.182 Q96.284,57.731 97.693,55.402 Q99.101,53.074 100.558,50.99 Q102.599,47.804 104.59,45.169 Q106.582,42.534 107.941,40.573 L119.307,24.765 Q120.182,23.539 120.619,22.743 Q121.056,21.946 121.056,21.456 Q121.056,21.333 121.056,21.272 Q121.056,21.211 121.056,21.211 Q120.959,20.843 120.667,20.475 Q120.376,20.108 120.085,20.108 Q118.628,20.108 113.964,23.049 Q109.301,25.99 103.667,29.544 Q102.988,30.034 102.307,30.463 Q101.627,30.892 100.947,31.26 Q95.992,34.446 91.379,36.775 Q86.764,39.103 84.044,39.103 Q82.976,39.103 82.344,38.429 Q81.712,37.755 81.712,36.652 Q81.712,34.078 83.072,30.647 Q84.433,27.216 87.736,21.578 Q88.901,19.495 89.824,18.086 Q90.747,16.677 91.524,15.696 Q92.204,14.961 92.835,14.287 Q93.467,13.613 94.245,13 Q94.536,12.755 94.876,12.51 Q95.215,12.265 95.604,12.02 Q96.187,11.529 96.867,11.101 Q97.547,10.672 98.324,10.304 Q101.238,8.588 105.027,7.056 Q108.816,5.524 112.799,4.177 Q117.559,2.706 121.93,1.725 Q126.302,0.745 129.216,0.745 Q132.033,0.745 133.685,3.257 Q135.336,5.77 135.336,10.059 Q135.336,10.549 135.336,10.978 Q135.336,11.407 135.239,11.897 Q134.947,15.574 132.956,19.556 Q130.965,23.539 126.788,29.544 Q125.816,30.892 122.659,35.426 Q119.502,39.961 115.81,45.475 Q115.421,46.088 115.081,46.64 Q114.741,47.191 114.353,47.681 Q110.564,53.564 107.553,58.772 Q104.541,63.98 104.541,65.696 Q104.541,66.431 105.173,67.044 Q105.804,67.657 106.484,67.657 Q109.01,67.657 116.248,60.304 Q123.484,52.951 131.645,43.515 Q132.519,42.412 133.441,41.37 Q134.365,40.328 135.239,39.348 Q142.719,30.525 148.936,22.681 Q155.154,14.838 157.096,12.142 Q158.845,9.691 160.059,8.711 Q161.273,7.73 162.342,7.73 Q163.993,7.73 165.111,9.998 Q166.227,12.265 166.227,15.574 Q166.227,18.637 162.002,25.99 Q157.776,33.343 152.628,41.799 Q152.239,42.534 151.802,43.269 Q151.365,44.005 150.879,44.74 Q146.313,52.461 142.671,59.691 Q139.028,66.921 139.028,71.211 Q139.028,73.172 139.95,74.581 Q140.873,75.99 142.233,75.99 Q144.079,75.99 146.216,74.826 Q148.353,73.662 150.685,71.823 Q151.948,70.843 153.211,69.74 Q154.474,68.637 155.639,67.412 Q157.485,65.574 159.136,63.858 Q160.788,62.142 161.953,60.917 L161.953,60.794 z M193.72,45.353 Q195.857,45.843 199.694,46.517 Q203.532,47.191 207.708,48.416 Q213.732,50.133 218.685,53.135 Q223.639,56.137 223.639,61.039 Q223.639,62.755 222.863,64.838 Q222.087,66.921 220.724,68.882 Q219.365,70.843 217.617,72.681 Q215.869,74.52 213.634,76.235 Q209.263,79.544 204.259,81.873 Q199.256,84.201 194.204,85.181 Q192.165,85.549 190.125,85.794 Q188.085,86.039 186.046,86.039 Q178.468,86.039 173.854,82.547 Q169.239,79.054 169.239,73.172 Q169.239,71.456 169.676,69.618 Q170.114,67.78 170.794,65.941 Q171.765,63.368 173.125,60.917 Q174.485,58.466 175.942,56.137 Q177.107,54.422 178.176,52.829 Q179.245,51.235 180.119,49.887 Q176.039,49.642 173.902,48.478 Q171.765,47.314 171.765,45.475 Q171.765,43.147 174.388,41.86 Q177.011,40.573 180.217,39.838 Q182.645,39.348 184.879,39.042 Q187.114,38.735 188.085,38.49 Q189.251,37.02 190.465,35.426 Q191.679,33.833 192.943,32.24 Q196.439,27.828 200.567,24.213 Q204.696,20.598 209.263,20.598 Q209.749,20.598 209.942,20.782 Q210.137,20.966 210.137,21.456 Q210.137,22.314 208.387,24.949 Q206.639,27.583 204.502,30.647 Q204.502,30.892 204.405,31.015 Q204.309,31.137 204.211,31.26 Q203.239,32.485 202.366,33.772 Q201.49,35.059 200.713,36.162 Q201.588,36.039 202.463,35.855 Q203.336,35.672 204.114,35.549 Q208.485,34.814 211.4,33.895 Q214.314,32.976 217.035,31.628 Q217.715,31.382 218.394,30.953 Q219.074,30.525 219.852,30.157 Q221.309,29.299 222.57,28.257 Q223.835,27.216 224.903,26.235 Q226.262,24.887 227.04,23.539 Q227.817,22.191 227.817,21.088 Q227.817,18.515 225.39,17.105 Q222.959,15.696 218.685,15.696 Q210.429,15.696 202.511,17.841 Q194.593,19.985 186.823,23.417 Q187.114,23.662 187.357,23.846 Q187.599,24.029 187.794,24.275 Q187.892,24.52 187.988,24.703 Q188.085,24.887 188.085,25.132 Q188.085,26.48 186.628,27.154 Q185.171,27.828 183.131,28.319 Q182.256,28.564 181.333,28.809 Q180.41,29.054 179.439,29.299 Q178.953,29.422 178.468,29.605 Q177.982,29.789 177.496,29.912 Q176.719,30.157 175.845,30.586 Q174.97,31.015 174.097,31.505 Q173.805,31.628 173.562,31.75 Q173.32,31.873 173.028,31.995 Q171.862,32.608 170.744,33.037 Q169.628,33.466 168.559,33.466 Q167.296,33.466 166.616,32.669 Q165.936,31.873 165.936,30.279 Q165.936,30.034 165.936,29.789 Q165.936,29.544 166.034,29.299 Q166.131,28.441 166.519,27.399 Q166.907,26.358 167.976,24.52 Q169.239,22.069 170.308,20.23 Q171.376,18.392 172.445,16.922 Q174.097,14.471 176.088,12.877 Q178.08,11.284 181.382,9.936 Q182.063,9.569 182.791,9.262 Q183.52,8.956 184.297,8.711 Q194.108,5.034 202.024,3.319 Q209.942,1.603 217.13,1.603 Q225.776,1.603 230.924,5.402 Q236.074,9.201 236.074,15.696 Q236.074,25.255 228.933,30.647 Q221.793,36.039 213.245,38.858 Q208.194,40.451 203.482,41.554 Q198.771,42.657 195.468,43.392 L193.72,45.353 L193.72,45.353 z M189.542,51.235 Q188.96,52.216 187.842,53.625 Q186.725,55.035 185.462,56.627 Q185.073,57.118 184.685,57.669 Q184.297,58.221 184.004,58.833 Q182.742,60.672 181.819,62.387 Q180.897,64.103 180.897,65.329 Q180.897,68.392 183.762,70.353 Q186.628,72.314 191.194,72.314 Q192.845,72.314 195.419,71.701 Q197.994,71.088 200.811,69.863 Q205.182,68.147 208.874,65.39 Q212.566,62.633 212.566,59.691 Q212.566,56.995 208.826,55.402 Q205.084,53.809 200.52,52.951 Q197.119,52.216 194.059,51.909 Q190.999,51.603 189.542,51.358 L189.542,51.235 z M273.862,36.897 Q274.738,36.039 275.611,35.059 Q276.486,34.078 277.361,33.098 Q282.801,26.726 286.152,20.904 Q289.503,15.083 289.503,11.775 Q289.503,10.549 288.921,9.814 Q288.338,9.078 287.366,9.078 Q284.647,9.078 279.643,12.694 Q274.64,16.309 268.327,23.049 Q266.093,25.377 263.567,28.319 Q261.042,31.26 258.418,34.691 Q254.145,40.206 250.111,46.824 Q246.081,53.441 243.556,60.182 Q242.098,63.98 241.27,67.78 Q240.445,71.578 240.445,75.132 Q240.445,81.137 243.069,84.691 Q245.692,88.245 250.064,88.245 Q253.756,88.245 257.739,86.713 Q261.721,85.181 265.799,82.73 Q269.977,80.034 274.153,76.603 Q278.332,73.172 282.217,69.495 Q285.326,66.554 288.143,63.735 Q290.96,60.917 293.292,58.466 Q293.388,59.078 293.388,59.63 Q293.388,60.182 293.388,60.794 Q293.388,63.49 291.397,66.676 Q289.407,69.863 284.451,75.132 Q272.016,88.122 262.401,94.311 Q252.782,100.5 244.719,100.5 Q236.56,100.5 231.557,94.495 Q226.553,88.49 226.553,78.196 Q226.553,71.701 228.984,63.858 Q231.411,56.015 235.881,47.926 Q238.795,42.412 242.535,37.081 Q246.274,31.75 250.645,26.848 Q252.589,24.642 255.162,22.007 Q257.739,19.373 260.748,16.677 Q263.371,14.348 266.188,12.081 Q269.007,9.814 271.823,7.73 Q276.292,4.667 280.516,2.706 Q284.743,0.745 288.241,0.745 Q292.806,0.745 295.38,3.748 Q297.955,6.75 297.955,12.02 Q297.955,16.064 296.255,21.027 Q294.554,25.99 291.738,31.137 Q288.823,36.407 285.131,41.431 Q281.44,46.456 277.554,50.623 Q272.892,55.525 268.52,58.65 Q264.149,61.774 261.234,61.774 Q258.902,61.774 257.495,60.182 Q256.085,58.588 256.085,55.892 Q256.085,55.035 256.329,54.115 Q256.572,53.196 256.961,52.216 Q257.444,51.113 258.124,50.01 Q258.807,48.907 259.585,48.049 L268.034,38.49 L271.144,34.936 Q271.239,34.936 271.337,34.814 Q271.435,34.691 271.628,34.569 Q271.921,34.324 272.26,34.14 Q272.601,33.956 272.794,33.956 Q273.28,33.956 273.717,34.507 Q274.153,35.059 274.153,35.672 Q274.153,35.917 274.106,36.223 Q274.058,36.529 273.862,37.02 L273.862,36.897 z M316.995,58.956 L296.303,84.691 Q293.972,87.755 292.417,89.226 Q290.863,90.696 289.503,91.186 Q289.018,91.431 288.532,91.492 Q288.046,91.554 287.463,91.554 Q286.006,91.554 285.229,90.88 Q284.451,90.206 284.451,88.98 Q284.451,87.387 285.763,84.875 Q287.075,82.363 289.114,79.667 Q290.183,78.319 291.397,76.971 Q292.612,75.623 293.875,74.397 Q294.36,73.907 294.797,73.539 Q295.235,73.172 295.527,72.804 Q295.818,72.559 296.158,72.314 Q296.498,72.069 296.789,71.823 Q297.566,71.333 298.537,70.782 Q299.509,70.231 300.966,69.495 L308.447,58.956 L303.2,59.201 Q302.909,59.323 302.52,59.323 Q302.132,59.323 301.743,59.201 Q300.772,59.078 299.995,58.527 Q299.217,57.976 299.217,56.627 Q299.217,55.28 300.14,53.748 Q301.064,52.216 303.686,49.152 Q304.561,48.171 305.338,47.314 Q306.114,46.456 306.892,45.72 Q309.418,43.269 312.186,41.86 Q314.955,40.451 318.743,40.451 Q319.521,40.451 319.909,40.635 Q320.297,40.819 320.297,41.309 Q320.297,42.167 319.229,42.473 Q318.161,42.779 316.8,43.024 Q316.8,43.024 316.752,43.024 Q316.704,43.024 316.606,43.024 Q315.344,43.147 314.324,43.392 Q313.303,43.637 313.303,44.495 Q313.303,44.985 313.692,45.353 Q314.081,45.72 314.76,45.72 Q315.732,45.72 316.752,45.659 Q317.772,45.598 318.743,45.475 Q319.229,45.475 319.763,45.414 Q320.297,45.353 320.783,45.353 Q323.99,41.922 327.729,37.816 Q331.469,33.711 335.452,29.544 Q336.715,28.196 338.026,26.848 Q339.338,25.5 340.698,24.152 Q345.07,19.618 349.343,15.574 Q353.618,11.529 357.406,8.588 Q361.293,5.279 363.673,3.748 Q366.053,2.216 367.316,2.216 Q368.578,2.216 369.598,3.503 Q370.618,4.789 370.715,6.382 Q370.715,6.505 370.715,6.566 Q370.715,6.627 370.715,6.75 Q370.715,7.118 370.715,7.547 Q370.715,7.975 370.618,8.343 Q370.522,9.446 369.987,10.917 Q369.453,12.387 368.286,14.961 L355.95,42.289 L361.389,42.044 Q361.487,42.044 361.535,42.044 Q361.584,42.044 361.68,42.044 Q361.972,42.044 362.215,42.044 Q362.457,42.044 362.749,42.167 Q363.138,42.289 363.526,42.412 Q363.915,42.534 364.402,42.779 Q363.526,44.005 362.896,45.046 Q362.264,46.088 361.68,47.069 Q361.487,47.436 361.244,47.865 Q361.001,48.294 360.807,48.784 Q360.03,50.255 359.155,52.032 Q358.281,53.809 357.115,56.627 L349.343,56.995 Q348.955,57.976 348.129,59.63 Q347.303,61.284 346.429,63.245 Q346.235,63.613 346.09,63.858 Q345.944,64.103 345.847,64.47 Q344.778,66.676 344.002,68.698 Q343.224,70.721 343.224,71.701 Q343.224,72.314 343.613,72.865 Q344.002,73.417 344.584,73.662 Q344.681,73.662 344.826,73.723 Q344.972,73.784 345.07,73.784 Q346.138,73.784 347.693,72.559 Q349.246,71.333 353.424,67.167 L355.172,70.231 Q354.104,71.578 352.841,73.11 Q351.578,74.642 350.218,76.235 Q347.499,79.176 344.438,81.873 Q341.378,84.569 338.269,85.427 Q337.589,85.549 336.957,85.671 Q336.327,85.794 335.647,85.794 Q333.606,85.794 332.149,83.956 Q330.692,82.118 330.692,79.544 Q330.692,78.441 330.838,77.338 Q330.984,76.235 331.178,75.132 Q331.761,72.191 332.927,69.372 Q334.092,66.554 335.355,63.98 Q336.035,62.387 336.715,60.978 Q337.395,59.569 337.978,58.221 L316.995,58.956 L316.995,58.956 z M345.166,42.779 L358.379,14.961 Q354.59,18.515 351.772,21.211 Q348.955,23.907 346.332,26.48 Q345.847,26.971 345.313,27.522 Q344.778,28.074 344.292,28.564 Q341.28,31.628 338.026,35.304 Q334.773,38.98 330.207,44.128 L345.166,42.779 L345.166,42.779 z M399.762,17.657 Q393.155,18.515 386.55,19.801 Q379.944,21.088 373.629,23.662 Q370.91,24.887 369.696,25.255 Q368.481,25.623 367.509,25.745 Q367.316,25.745 367.169,25.745 Q367.024,25.745 366.829,25.745 Q366.15,25.745 365.761,25.439 Q365.372,25.132 365.372,24.642 Q365.372,23.539 366.247,21.456 Q367.122,19.373 368.286,17.044 Q368.578,16.554 368.82,16.125 Q369.064,15.696 369.259,15.206 Q370.618,12.755 371.784,10.855 Q372.95,8.956 373.145,8.711 Q375.767,5.892 383.683,3.625 Q391.601,1.358 400.539,0.745 Q401.995,0.623 403.356,0.561 Q404.717,0.5 406.076,0.5 Q407.532,0.5 408.943,0.561 Q410.35,0.623 411.807,0.745 Q420.744,1.48 428.223,6.321 Q435.706,11.162 435.706,24.887 Q435.706,41.186 425.843,50.684 Q415.984,60.182 404.132,63.613 Q400.635,64.593 397.186,65.083 Q393.738,65.574 390.533,65.574 Q390.241,65.574 389.95,65.574 Q389.659,65.574 389.367,65.574 Q387.909,65.574 385.967,65.39 Q384.025,65.206 380.042,64.716 L375.961,72.804 Q376.933,73.172 377.37,73.784 Q377.807,74.397 377.807,75.255 Q377.807,75.99 376.786,78.135 Q375.767,80.279 374.31,82.73 Q373.727,83.833 373.047,84.814 Q372.368,85.794 371.686,86.775 Q370.423,88.368 369.259,89.409 Q368.093,90.451 367.218,90.451 Q365.663,90.451 364.789,89.287 Q363.915,88.122 363.915,86.039 Q363.915,84.078 364.886,81.076 Q365.858,78.074 367.316,74.887 Q367.704,73.907 368.141,73.049 Q368.578,72.191 368.967,71.333 Q370.23,68.76 371.346,66.554 Q372.464,64.348 373.241,62.755 Q372.076,61.774 371.299,60.917 Q370.522,60.059 370.036,59.323 Q369.55,58.343 369.307,57.363 Q369.064,56.382 369.064,55.035 Q369.064,52.829 370.084,51.113 Q371.104,49.397 373.727,47.804 Q375.475,46.701 378.098,45.598 Q380.721,44.495 384.413,43.147 L399.762,17.657 L399.762,17.657 z M405.299,17.044 Q405.201,18.882 405.056,19.924 Q404.909,20.966 404.425,21.946 Q404.327,22.191 404.182,22.375 Q404.036,22.559 403.939,22.804 L393.059,41.431 Q393.837,41.431 394.563,41.309 Q395.293,41.186 396.07,41.064 Q396.751,41.064 397.528,41.003 Q398.304,40.941 398.984,40.941 Q399.665,40.941 400.101,41.309 Q400.539,41.677 400.539,42.289 Q400.539,42.779 400.101,43.147 Q399.665,43.515 399.179,43.76 Q398.11,44.128 397.091,44.434 Q396.07,44.74 395.001,45.108 Q393.933,45.353 392.913,45.72 Q391.892,46.088 390.823,46.456 L388.687,50.377 Q391.7,50.867 393.302,50.99 Q394.905,51.113 396.166,51.113 Q396.361,51.113 396.508,51.113 Q396.652,51.113 396.751,51.113 Q398.597,51.113 400.539,50.867 Q402.481,50.623 404.425,50.133 Q410.254,48.539 415.645,45.292 Q421.035,42.044 424.145,37.755 Q425.018,36.529 425.795,34.998 Q426.573,33.466 427.255,31.75 Q427.932,30.034 428.323,28.441 Q428.71,26.848 428.71,25.623 Q428.71,22.191 424.727,20.537 Q420.744,18.882 416.082,18.147 Q413.07,17.657 410.254,17.473 Q407.436,17.289 405.59,17.167 Q405.494,17.167 405.443,17.167 Q405.395,17.167 405.299,17.167 L405.299,17.044 z M486.801,18.025 Q485.638,18.27 484.421,18.392 Q483.21,18.515 482.041,18.637 Q476.021,19.373 470.142,20.904 Q464.263,22.436 458.826,25.623 Q458.34,25.868 457.319,26.542 Q456.297,27.216 455.229,28.074 Q454.452,28.686 453.726,29.36 Q452.997,30.034 452.511,30.77 Q451.929,31.382 451.638,31.995 Q451.346,32.608 451.346,33.221 Q451.346,34.201 452.024,34.936 Q452.707,35.672 454.161,36.407 Q455.229,36.897 456.64,37.387 Q458.049,37.877 459.895,38.49 L470.091,41.186 Q471.843,41.799 474.027,42.534 Q476.212,43.269 478.544,44.25 Q483.109,46.211 486.949,49.703 Q490.784,53.196 490.784,58.833 Q490.784,71.823 477.672,79.115 Q464.555,86.407 441.144,86.407 Q434.734,86.407 431.285,84.691 Q427.837,82.976 427.837,79.789 Q427.837,78.809 428.223,77.522 Q428.614,76.235 429.196,74.887 Q429.877,73.294 430.799,71.823 Q431.723,70.353 432.693,69.25 Q433.179,68.637 433.713,68.27 Q434.247,67.902 434.734,67.657 Q436.871,66.676 438.62,66.002 Q440.367,65.329 440.949,65.329 Q441.435,65.329 441.583,65.512 Q441.726,65.696 441.726,66.309 Q441.726,67.044 441.144,67.718 Q440.562,68.392 439.88,68.882 Q439.494,69.25 439.103,69.556 Q438.716,69.863 438.426,70.108 Q440.949,70.231 442.603,70.292 Q444.254,70.353 445.032,70.353 Q446.682,70.353 448.38,70.292 Q450.083,70.231 451.733,70.108 Q458.826,69.618 465.818,67.657 Q472.813,65.696 479.126,61.407 Q479.903,60.917 480.438,60.304 Q480.972,59.691 481.364,58.956 Q481.458,58.711 481.556,58.343 Q481.654,57.976 481.654,57.731 Q481.654,56.995 480.972,56.137 Q480.295,55.28 479.031,54.422 Q476.989,52.951 473.832,51.664 Q470.676,50.377 467.083,49.52 L451.053,45.72 Q445.709,44.618 443.429,42.167 Q441.144,39.716 441.144,35.059 Q441.144,33.588 441.34,31.75 Q441.534,29.912 441.922,28.074 Q442.31,25.745 442.99,23.478 Q443.672,21.211 444.349,19.618 Q446.878,14.593 453.288,10.917 Q459.699,7.24 466.887,5.034 Q472.425,3.319 477.523,2.461 Q482.624,1.603 486.024,1.603 Q494.185,1.603 497.342,2.89 Q500.5,4.177 500.5,7.608 Q500.5,13.368 498.992,16.125 Q497.488,18.882 493.116,20.966 Q492.921,21.088 492.729,21.15 Q492.534,21.211 492.338,21.333 Q491.466,21.701 490.154,22.62 Q488.842,23.539 487.384,24.52 Q487.287,24.642 487.192,24.703 Q487.092,24.765 486.997,24.765 Q485.055,26.235 483.401,27.399 Q481.749,28.564 481.364,28.564 Q480.78,28.564 480.295,28.074 Q479.809,27.583 479.809,26.848 Q479.809,26.726 479.809,26.603 Q479.809,26.48 479.903,26.358 Q480.003,25.868 480.245,25.439 Q480.487,25.01 480.972,24.52 L486.801,18.025 L486.801,18.025 z" fill-opacity="0" stroke="#FFFFFF" stroke-width="1"/>
    </g>
  </g>
  <defs>
    <linearGradient id="Gradient_1" gradientUnits="userSpaceOnUse" x1="250.5" y1="0.5" x2="250.5" y2="100.5">
      <stop offset="0" stop-color="#FFCCC4"/>
      <stop offset="0.162" stop-color="#FF7D05"/>
      <stop offset="1" stop-color="#000000"/>
    </linearGradient>
  </defs>
</svg>
