<?xml version="1.0" encoding="UTF-8"?>
<!DOCTYPE svg PUBLIC "-//W3C//DTD SVG 1.1//EN" "http://www.w3.org/Graphics/SVG/1.1/DTD/svg11.dtd">
<svg version="1.1" xmlns="http://www.w3.org/2000/svg" xmlns:xlink="http://www.w3.org/1999/xlink" x="0px" y="0px" width="500" height="380" viewBox="0, 0, 500, 380">
  <g id="Logo">
    <g>
      <path d="M250.5,370.5 C151.089,370.5 70.5,289.911 70.5,190.5 C70.5,91.089 151.089,10.5 250.5,10.5 C349.911,10.5 430.5,91.089 430.5,190.5 C430.5,289.911 349.911,370.5 250.5,370.5 z" fill="url(#Gradient_1)"/>
      <path d="M250.5,370.5 C151.089,370.5 70.5,289.911 70.5,190.5 C70.5,91.089 151.089,10.5 250.5,10.5 C349.911,10.5 430.5,91.089 430.5,190.5 C430.5,289.911 349.911,370.5 250.5,370.5 z" fill-opacity="0" stroke="#000000" stroke-width="0.562"/>
    </g>
    <path d="M247.202,358.002 L247.296,352.365 C244.33,352.328 246.303,352.372 241.375,352.122 L241.673,346.533 C237.441,346.317 239.177,346.469 236.459,346.194 L236.896,341.173 C239.526,341.439 237.845,341.293 241.942,341.5 L241.673,346.533 C243.578,346.651 245.481,346.743 247.387,346.768 L247.296,352.365 C250.902,352.411 249.099,352.411 252.705,352.365 L252.614,346.768 C254.52,346.774 256.424,346.63 258.328,346.533 L258.059,341.5 C262.157,341.293 260.475,341.439 263.105,341.173 L263.543,346.194 C260.825,346.469 262.56,346.317 258.328,346.533 L258.627,352.122 C253.699,352.372 255.671,352.328 252.705,352.365 L252.8,358.002 z M241.074,357.786 L235.49,357.395 L235.975,351.771 L230.081,351.174 L230.768,345.615 C228.542,345.39 230.275,345.578 225.597,344.864 L226.381,339.885 C230.908,340.577 229.231,340.395 231.388,340.615 L230.768,345.615 L236.459,346.194 L235.975,351.771 C238.789,352.057 236.993,351.9 241.375,352.122 z M258.928,357.786 L258.627,352.122 C263.008,351.9 261.212,352.057 264.026,351.771 L263.543,346.194 L269.234,345.615 L268.613,340.615 C270.77,340.395 269.094,340.577 273.621,339.885 L274.405,344.864 C269.726,345.578 271.459,345.39 269.234,345.615 L269.921,351.174 L264.026,351.771 L264.512,357.396 z M270.61,356.756 L269.921,351.174 C272.224,350.94 270.43,351.134 275.276,350.394 L274.405,344.864 C278.523,344.234 276.648,344.577 280.039,343.884 L279.073,338.937 L284.029,337.923 L285.159,342.837 L280.039,343.884 L281.113,349.379 C277.6,350.098 279.544,349.742 275.276,350.394 L276.155,355.975 z M229.391,356.756 L223.846,355.975 L224.725,350.394 C220.457,349.742 222.401,350.098 218.889,349.38 L219.963,343.884 L214.842,342.837 L215.972,337.923 L220.928,338.937 L219.963,343.884 C223.353,344.577 221.477,344.234 225.597,344.864 L224.725,350.394 C229.571,351.134 227.777,350.94 230.081,351.174 z M217.81,354.912 L212.332,353.746 L213.585,348.294 L213.325,348.242 L207.843,346.831 L209.298,341.423 C206.128,340.608 207.806,341.079 204.275,339.981 L205.745,335.16 C209.161,336.223 207.538,335.768 210.606,336.557 L209.298,341.423 L214.589,342.785 L214.842,342.837 L213.585,348.294 L218.889,349.38 z M282.192,354.912 L281.113,349.379 L286.416,348.294 L285.159,342.837 L285.412,342.785 L290.703,341.423 L289.396,336.557 C292.463,335.768 290.84,336.223 294.256,335.16 L295.727,339.981 C292.196,341.079 293.873,340.608 290.703,341.423 L292.158,346.831 L286.676,348.242 L286.416,348.294 L287.669,353.746 z M206.384,352.263 L201.001,350.721 L202.642,345.337 C197.604,343.77 199.464,344.435 196.999,343.532 L198.826,338.238 L193.919,336.441 L195.721,331.734 L200.471,333.473 L198.826,338.238 C201.207,339.109 199.411,338.468 204.275,339.981 L202.642,345.337 C206.298,346.475 204.561,345.987 207.843,346.831 z M293.617,352.263 L292.158,346.831 C295.44,345.987 293.703,346.475 297.359,345.337 L295.727,339.981 C300.59,338.468 298.795,339.109 301.175,338.238 L299.529,333.473 L304.28,331.734 L306.083,336.441 L301.175,338.238 L303.003,343.532 C300.538,344.435 302.398,343.77 297.359,345.337 L299,350.721 z M304.83,348.826 L303.003,343.532 L308.086,341.671 L306.083,336.441 C308.815,335.441 307.033,336.119 311.379,334.281 L309.407,329.644 C312.992,328.127 311.461,328.833 314.031,327.594 L316.158,332.164 C313.502,333.443 315.084,332.714 311.379,334.281 L313.573,339.434 C309.07,341.337 310.916,340.635 308.086,341.671 L310.093,346.912 z M195.171,348.826 L189.909,346.912 L191.915,341.671 C189.085,340.635 190.931,341.338 186.429,339.434 L188.621,334.281 C184.917,332.714 186.499,333.443 183.843,332.164 L185.97,327.595 C188.54,328.833 187.009,328.127 190.594,329.644 L188.621,334.281 C192.967,336.119 191.186,335.441 193.919,336.441 L191.915,341.671 L196.999,343.532 z M250.001,346.799 L247.387,346.768 L247.473,341.729 C250.843,341.772 249.158,341.772 252.529,341.729 L252.614,346.768 z M184.225,344.615 L179.109,342.337 L181.481,337.242 L176.143,334.669 L178.689,329.681 L178.617,329.646 L174.095,327.189 L176.535,322.78 L180.912,325.158 L180.981,325.191 L178.689,329.681 L183.843,332.164 L181.481,337.242 C184.231,338.566 182.592,337.811 186.429,339.434 z z M315.776,344.615 L313.573,339.434 C317.409,337.811 315.771,338.566 318.521,337.242 L316.158,332.164 L321.311,329.681 L319.019,325.191 L319.089,325.158 L323.467,322.78 L325.907,327.189 L321.384,329.646 L321.311,329.681 L323.859,334.669 L318.521,337.242 L320.892,342.337 z M173.6,339.65 L168.655,337.021 L171.384,332.09 C168.169,330.343 169.884,331.321 166.259,329.118 L169.146,324.321 C165.218,321.934 166.67,322.896 164.704,321.569 L167.446,317.34 C169.348,318.625 167.943,317.693 171.745,320.004 L169.146,324.321 C172.647,326.449 170.991,325.503 174.095,327.189 L171.384,332.09 L176.068,334.634 L176.143,334.669 z M326.402,339.65 L323.859,334.669 L323.933,334.634 L328.618,332.09 L325.907,327.189 C329.01,325.503 327.354,326.449 330.855,324.321 L328.256,320.004 C332.059,317.693 330.653,318.625 332.555,317.34 L335.298,321.569 C333.331,322.896 334.784,321.934 330.855,324.321 L333.743,329.118 C330.117,331.321 331.833,330.343 328.618,332.09 L331.345,337.021 z M163.347,333.956 L158.597,330.989 L161.658,326.268 L156.749,322.951 L159.964,318.366 C158.032,317.061 159.467,318.048 155.755,315.272 L158.784,311.245 C162.377,313.932 160.988,312.977 162.858,314.241 L159.964,318.366 L164.704,321.569 L161.658,326.268 C163.694,327.643 162.19,326.646 166.259,329.118 z M336.655,333.956 L333.743,329.118 C337.811,326.646 336.308,327.643 338.344,326.267 L335.298,321.569 L340.037,318.366 L337.143,314.24 C339.013,312.977 337.624,313.932 341.217,311.245 L344.247,315.272 C340.534,318.048 341.969,317.061 340.037,318.366 L343.253,322.951 L338.344,326.267 L341.405,330.989 z M153.516,327.562 L148.985,324.269 L152.389,319.745 C149.039,317.241 150.588,318.466 147.721,316.099 L151.248,311.75 L147.387,308.565 L147.224,308.417 L150.528,304.61 L150.685,304.754 L154.422,307.837 L151.248,311.75 C154.016,314.035 152.521,312.853 155.755,315.272 L152.389,319.745 C153.827,320.837 155.253,321.94 156.749,322.951 z M346.486,327.562 L343.253,322.951 C345.254,321.6 343.767,322.621 347.613,319.745 L344.247,315.272 C347.48,312.853 345.985,314.035 348.753,311.75 L345.579,307.837 L349.317,304.754 L349.473,304.61 L352.776,308.417 L352.614,308.565 L348.753,311.75 L352.281,316.099 C349.413,318.466 350.962,317.24 347.613,319.745 L351.016,324.269 z M144.155,320.496 L139.865,316.896 L143.554,312.645 L139.17,308.661 L142.992,304.569 C140.92,302.687 142.192,303.877 139.244,300.929 L142.804,297.363 C145.657,300.216 144.426,299.065 146.431,300.887 L142.992,304.569 L147.224,308.417 L143.554,312.645 L143.722,312.799 L147.721,316.099 z M355.847,320.495 L352.281,316.099 L356.28,312.799 L356.448,312.645 L352.776,308.417 L357.009,304.569 L353.57,300.887 C355.575,299.065 354.343,300.216 357.198,297.363 L360.757,300.929 C357.809,303.877 359.081,302.687 357.009,304.569 L360.831,308.661 L356.448,312.645 L360.136,316.896 z M135.309,312.795 L131.281,308.904 L135.288,304.89 C133.859,303.525 132.493,302.102 131.165,300.639 L135.263,296.823 L131.748,292.957 L135.549,289.647 L138.951,293.39 L135.263,296.823 C137.369,299.141 136.065,297.75 139.244,300.929 L135.288,304.89 C138.342,307.943 137.024,306.711 139.17,308.661 z M364.692,312.795 L360.831,308.661 C362.977,306.711 361.66,307.943 364.713,304.89 L360.757,300.929 C363.936,297.75 362.633,299.141 364.739,296.823 L361.051,293.389 L364.452,289.647 L368.253,292.956 L364.739,296.823 L368.836,300.639 C367.544,302.135 366.11,303.496 364.713,304.89 L368.72,308.904 z M127.022,304.495 L123.275,300.333 L127.525,296.634 L127.202,296.279 L123.737,292.079 L128.091,288.559 C126.017,286.047 127.098,287.413 124.875,284.441 L128.897,281.406 C131.048,284.282 130.003,282.96 132.009,285.391 L128.091,288.559 L131.437,292.614 L131.748,292.957 L127.525,296.634 L131.165,300.639 z M372.979,304.494 L368.836,300.639 L372.477,296.633 L368.253,292.956 L368.565,292.614 L371.911,288.559 L367.993,285.391 C369.999,282.96 368.953,284.282 371.104,281.406 L375.127,284.441 C372.903,287.413 373.984,286.047 371.911,288.559 L376.264,292.079 L372.799,296.279 L372.477,296.633 L376.726,300.333 z M119.335,295.638 L115.887,291.225 L120.406,287.814 C119.206,286.243 118.011,284.675 116.904,283.037 L121.494,279.829 L118.568,275.499 L122.793,272.75 L125.624,276.941 L121.494,279.829 C122.537,281.426 123.732,282.916 124.875,284.441 L120.406,287.814 C122.708,290.892 121.589,289.478 123.737,292.079 z M380.666,295.638 L376.264,292.079 C378.411,289.478 377.293,290.892 379.595,287.814 L375.127,284.441 C376.285,282.924 377.44,281.41 378.508,279.829 L374.377,276.941 L377.208,272.75 L381.432,275.498 L378.508,279.829 L383.097,283.037 C382.017,284.691 380.779,286.234 379.595,287.814 L384.114,291.225 z M112.284,286.266 L109.153,281.624 L113.874,278.552 C112.741,276.933 111.771,275.209 110.748,273.52 L115.55,270.64 C113.595,267.424 114.457,268.937 112.928,266.12 L117.333,263.674 C118.814,266.4 117.98,264.935 119.871,268.048 L115.55,270.64 C118.109,274.852 117.057,273.262 118.568,275.499 L113.874,278.552 L116.904,283.037 z M387.717,286.266 L383.097,283.037 L386.128,278.552 L381.432,275.498 C382.944,273.262 381.893,274.852 384.451,270.64 L380.13,268.048 C382.022,264.935 381.187,266.4 382.668,263.674 L387.073,266.12 C385.544,268.937 386.406,267.424 384.451,270.64 L389.253,273.52 C388.246,275.222 387.233,276.914 386.128,278.552 L390.848,281.624 z M105.904,276.425 L103.105,271.576 L108.032,268.839 L105.367,263.933 L105.219,263.625 L110.211,261.086 L107.943,256.378 L112.509,254.244 L114.704,258.801 L110.211,261.086 L110.355,261.384 L112.928,266.12 L108.032,268.839 C109.617,271.756 108.723,270.188 110.748,273.52 z z M394.097,276.425 L389.253,273.52 C391.278,270.188 390.384,271.756 391.97,268.839 L387.073,266.12 L389.646,261.384 L389.79,261.086 L385.296,258.801 L387.492,254.244 L392.059,256.378 L389.79,261.086 L394.783,263.625 L394.634,263.933 L391.97,268.839 L396.897,271.576 z M100.227,266.164 L97.772,261.13 L102.869,258.748 C101.396,255.692 102.223,257.486 100.466,253.333 L105.623,251.15 C103.913,247.108 104.531,248.737 103.644,246.312 L108.348,244.502 C109.207,246.849 108.609,245.272 110.263,249.184 L105.623,251.15 C107.318,255.159 106.521,253.427 107.943,256.378 L102.869,258.748 L105.219,263.625 z M399.774,266.164 L394.783,263.625 L397.132,258.748 L392.059,256.378 C393.481,253.427 392.682,255.159 394.378,251.149 L389.738,249.184 C391.392,245.272 390.793,246.849 391.653,244.502 L396.357,246.312 C395.47,248.737 396.088,247.108 394.378,251.149 L399.534,253.333 C397.779,257.486 398.605,255.692 397.132,258.748 L402.229,261.13 z M95.279,255.53 L93.181,250.338 L98.417,248.323 L96.38,242.759 L101.677,240.94 C100.92,238.871 101.508,240.51 100.092,235.96 L104.911,234.482 C106.281,238.887 105.712,237.3 106.445,239.303 L101.677,240.94 L103.644,246.312 L98.417,248.323 C99.336,250.835 98.696,249.148 100.466,253.333 z M404.722,255.53 L399.534,253.333 C401.305,249.148 400.665,250.835 401.584,248.323 L396.357,246.312 L398.324,240.94 L393.557,239.303 C394.289,237.3 393.72,238.887 395.091,234.482 L399.909,235.96 C398.493,240.51 399.081,238.871 398.324,240.94 L403.621,242.759 L401.584,248.323 L406.82,250.338 z M91.084,244.578 L89.354,239.252 L94.739,237.601 C93.5,233.62 94.035,235.521 93.105,231.907 L98.515,230.462 L97.216,225.412 L97.214,225.399 L102.125,224.263 L102.127,224.273 L103.384,229.162 L98.515,230.462 C99.413,233.952 98.897,232.116 100.092,235.96 L94.739,237.601 C96.204,242.315 95.595,240.617 96.38,242.759 z M408.917,244.578 L403.621,242.759 C404.406,240.617 403.796,242.315 405.262,237.601 L399.909,235.96 C401.104,232.116 400.588,233.952 401.486,230.462 L396.617,229.161 L397.875,224.273 L397.877,224.263 L402.787,225.399 L402.785,225.412 L401.486,230.462 L406.897,231.907 C405.966,235.521 406.501,233.62 405.262,237.601 L410.648,239.252 z M87.664,233.36 L86.309,227.926 L91.757,226.665 L90.569,220.859 L96.067,219.795 C95.44,216.729 95.755,218.442 95.175,214.647 L100.151,213.855 C100.713,217.527 100.408,215.87 101.015,218.837 L96.067,219.795 L97.214,225.399 L91.757,226.665 L91.759,226.676 L93.105,231.907 z M412.336,233.36 L406.897,231.907 L408.242,226.676 L408.245,226.665 L402.787,225.399 L403.934,219.795 L398.987,218.837 C399.593,215.87 399.288,217.527 399.85,213.855 L404.826,214.647 C404.248,218.442 404.561,216.729 403.934,219.795 L409.433,220.859 L408.245,226.665 L413.692,227.926 z M85.035,221.93 L84.063,216.416 L89.645,215.526 C88.854,210.347 89.07,212.309 88.802,209.664 L94.361,208.985 L93.833,203.787 L98.853,203.345 L99.363,208.376 L94.361,208.985 C94.62,211.54 94.411,209.644 95.175,214.647 L89.645,215.526 C90.246,219.458 89.92,217.684 90.569,220.859 z M414.966,221.93 L409.433,220.859 C410.081,217.684 409.756,219.458 410.357,215.526 L404.826,214.647 C405.59,209.644 405.381,211.54 405.641,208.985 L400.638,208.376 L401.148,203.345 L406.168,203.787 L405.641,208.985 L411.199,209.664 C410.93,212.309 411.148,210.347 410.357,215.526 L415.939,216.416 z M83.209,210.347 L82.624,204.776 L88.255,204.28 C87.935,201.126 88.105,203.092 87.865,198.37 L93.456,198.08 C93.232,193.653 93.269,195.393 93.237,192.859 L98.275,192.769 C98.307,195.221 98.271,193.536 98.488,197.821 L93.456,198.08 C93.687,202.642 93.524,200.741 93.833,203.787 L88.255,204.28 L88.802,209.664 z M416.792,210.347 L411.199,209.664 L411.747,204.28 L406.168,203.787 C406.477,200.741 406.314,202.642 406.546,198.08 L401.513,197.821 C401.73,193.536 401.694,195.221 401.726,192.769 L406.765,192.859 C406.732,195.393 406.769,193.653 406.546,198.08 L412.135,198.37 C411.896,203.092 412.066,201.126 411.747,204.28 L417.377,204.776 z M82.196,198.662 L82.001,193.064 L87.638,192.962 C87.588,189.012 87.588,190.989 87.638,187.039 L82.001,186.937 L82.196,181.339 L87.865,181.631 C87.756,183.433 87.661,185.233 87.638,187.039 L93.237,187.142 C93.189,190.953 93.189,189.048 93.237,192.859 L87.638,192.962 C87.634,194.768 87.773,196.568 87.865,198.37 z M417.804,198.662 L412.135,198.37 C412.246,196.568 412.34,194.768 412.364,192.962 L406.765,192.859 C406.813,189.048 406.813,190.953 406.765,187.142 L412.364,187.039 C412.367,185.233 412.229,183.433 412.135,181.631 L417.804,181.339 L418.002,186.937 L412.364,187.039 C412.413,190.989 412.413,189.012 412.364,192.962 L418.002,193.064 z M98.275,187.232 L93.237,187.142 C93.269,184.608 93.232,186.348 93.456,181.921 L87.865,181.631 C88.105,176.908 87.935,178.875 88.255,175.721 L82.624,175.224 L83.209,169.654 L88.802,170.337 L88.255,175.721 L93.833,176.214 C93.524,179.259 93.687,177.359 93.456,181.921 L98.488,182.18 L98.29,186.083 z M401.726,187.232 C401.694,184.781 401.73,186.465 401.513,182.18 L406.546,181.921 C406.314,177.359 406.477,179.259 406.168,176.214 L411.747,175.721 L411.199,170.337 L416.792,169.654 L417.377,175.224 L411.747,175.721 C412.066,178.875 411.896,176.908 412.135,181.631 L406.546,181.921 C406.769,186.348 406.732,184.608 406.765,187.142 z M98.853,176.656 L93.833,176.214 L94.361,171.016 L88.802,170.337 C89.07,167.691 88.854,169.654 89.645,164.474 L84.063,163.585 L85.035,158.07 L90.569,159.141 C89.92,162.317 90.246,160.543 89.645,164.474 L95.175,165.354 C94.411,170.357 94.62,168.461 94.361,171.016 L99.363,171.625 z M401.148,176.656 L400.638,171.625 L405.641,171.016 C405.381,168.461 405.59,170.357 404.826,165.354 L410.357,164.474 C409.756,160.543 410.081,162.317 409.433,159.141 L414.966,158.07 L415.939,163.585 L410.357,164.474 C411.148,169.654 410.93,167.691 411.199,170.337 L405.641,171.016 L406.168,176.214 z M100.151,166.146 L95.175,165.354 C95.755,161.558 95.44,163.271 96.067,160.206 L90.569,159.141 L91.757,153.336 L86.309,152.075 L87.664,146.641 L93.105,148.094 L91.759,153.324 L91.757,153.336 L97.214,154.601 L96.067,160.206 L101.015,161.163 L100.611,163.136 z M399.85,166.146 C399.288,162.472 399.593,164.131 398.987,161.163 L403.934,160.206 L402.787,154.601 L408.245,153.336 L408.242,153.324 L406.897,148.094 L412.336,146.641 L413.692,152.075 L408.245,153.336 L409.433,159.141 L403.934,160.206 C404.561,163.271 404.248,161.558 404.826,165.354 z z M102.125,155.738 L97.214,154.601 L97.216,154.589 L98.515,149.539 L93.105,148.094 C94.035,144.479 93.5,146.38 94.738,142.4 L89.354,140.749 L91.084,135.423 L96.38,137.241 C95.595,139.384 96.204,137.686 94.738,142.4 L100.092,144.041 C98.897,147.884 99.413,146.049 98.515,149.539 L103.384,150.839 L102.127,155.727 z M397.877,155.738 L397.875,155.727 L396.617,150.839 L401.486,149.539 C400.588,146.049 401.104,147.884 399.909,144.041 L405.262,142.4 C403.796,137.686 404.406,139.384 403.621,137.241 L408.917,135.423 L410.648,140.749 L405.262,142.4 C406.501,146.38 405.966,144.479 406.897,148.094 L401.486,149.539 L402.785,154.589 L402.787,154.601 z M395.091,145.518 C393.72,141.114 394.289,142.701 393.557,140.698 L398.324,139.061 L396.357,133.688 L401.584,131.677 C400.665,129.166 401.305,130.853 399.534,126.668 L404.722,124.47 L406.82,129.663 L401.584,131.677 L403.621,137.241 L398.324,139.061 C399.081,141.13 398.493,139.49 399.909,144.041 z M104.911,145.518 L100.092,144.041 C101.508,139.49 100.92,141.13 101.677,139.061 L96.38,137.241 L98.417,131.677 L93.181,129.663 L95.279,124.47 L100.466,126.668 C98.696,130.853 99.336,129.166 98.417,131.677 L103.644,133.688 L101.677,139.061 L106.445,140.698 L106.214,141.327 z M391.653,135.498 C390.793,133.152 391.392,134.728 389.738,130.817 L394.378,128.851 C392.682,124.841 393.481,126.573 392.059,123.623 L397.132,121.252 L394.783,116.376 L399.774,113.837 L402.229,118.87 L397.132,121.252 C398.605,124.308 397.779,122.514 399.534,126.668 L394.378,128.851 C396.088,132.892 395.47,131.264 396.357,133.688 z M108.348,135.498 L103.644,133.688 C104.531,131.264 103.913,132.892 105.622,128.851 L100.466,126.668 C102.223,122.514 101.396,124.308 102.869,121.252 L97.772,118.87 L100.227,113.837 L105.219,116.376 L102.869,121.252 L107.943,123.623 C106.521,126.573 107.318,124.841 105.622,128.851 L110.263,130.817 L108.767,134.354 z M387.492,125.756 L385.296,121.2 L389.79,118.915 L389.646,118.617 L387.073,113.88 L391.97,111.162 C390.384,108.245 391.278,109.812 389.253,106.48 L394.097,103.576 L396.897,108.425 L391.97,111.162 L394.634,116.067 L394.783,116.376 L389.79,118.915 L392.059,123.623 z M112.509,125.756 L107.943,123.623 L110.211,118.915 L105.219,116.376 L105.367,116.067 L108.032,111.162 L103.105,108.425 L105.905,103.576 L110.748,106.48 C108.723,109.812 109.617,108.245 108.032,111.162 L112.928,113.88 L110.355,118.617 L110.211,118.915 L114.704,121.199 z M382.668,116.327 C381.187,113.601 382.022,115.066 380.13,111.952 L384.451,109.36 C381.893,105.148 382.944,106.739 381.432,104.502 L386.128,101.449 L383.097,96.964 L387.717,93.734 L390.848,98.377 L386.128,101.449 C387.26,103.067 388.229,104.792 389.253,106.48 L384.451,109.36 C386.406,112.577 385.544,111.064 387.073,113.88 z M117.333,116.327 L112.928,113.88 C114.457,111.064 113.595,112.577 115.55,109.36 L110.748,106.48 C111.755,104.779 112.767,103.086 113.874,101.449 L109.153,98.377 L112.284,93.734 L116.904,96.964 L113.874,101.449 L118.568,104.502 C117.057,106.739 118.109,105.148 115.55,109.36 L119.871,111.952 L118.347,114.461 z M122.793,107.25 L118.568,104.502 L121.493,100.172 L116.904,96.964 C117.984,95.309 119.222,93.767 120.406,92.187 L115.887,88.776 L119.335,84.363 L123.737,87.921 C121.589,90.523 122.708,89.108 120.406,92.187 L124.875,95.56 C123.716,97.076 122.562,98.59 121.493,100.172 L125.624,103.059 z M377.208,107.25 L374.377,103.059 L378.508,100.172 C377.464,98.574 376.27,97.085 375.127,95.56 L379.595,92.187 C377.293,89.109 378.411,90.523 376.264,87.921 L380.666,84.363 L384.114,88.776 L379.595,92.187 C380.796,93.757 381.991,95.326 383.097,96.964 L378.508,100.172 L381.432,104.502 z M371.104,98.595 C368.953,95.719 369.999,97.041 367.993,94.609 L371.911,91.441 L368.565,87.387 L368.253,87.044 L372.477,83.367 L368.836,79.362 L372.979,75.506 L376.726,79.668 L372.477,83.367 L372.799,83.722 L376.264,87.921 L371.911,91.441 C373.984,93.954 372.903,92.587 375.127,95.56 z z M128.897,98.595 L124.875,95.56 C127.098,92.587 126.017,93.953 128.091,91.441 L123.737,87.921 L127.202,83.722 L127.525,83.367 L123.275,79.667 L127.022,75.505 L131.165,79.362 L127.525,83.367 L131.748,87.044 L131.437,87.387 L128.091,91.441 L132.009,94.609 L130.609,96.306 z M364.452,90.354 L361.051,86.611 L364.739,83.178 C362.633,80.86 363.936,82.251 360.757,79.072 L364.713,75.11 C361.66,72.057 362.977,73.289 360.831,71.34 L364.692,67.206 L368.72,71.096 L364.713,75.11 C366.142,76.476 367.509,77.899 368.836,79.362 L364.739,83.178 L368.253,87.044 z M135.549,90.353 L131.748,87.044 L135.263,83.177 L131.165,79.362 C132.457,77.866 133.891,76.505 135.288,75.11 L131.281,71.096 L135.309,67.206 L139.17,71.339 C137.024,73.289 138.342,72.057 135.288,75.11 L139.244,79.072 C136.065,82.251 137.369,80.86 135.263,83.177 L138.951,86.611 z M357.198,82.637 C354.344,79.784 355.575,80.936 353.57,79.114 L357.009,75.431 L352.777,71.584 L356.448,67.355 L356.28,67.202 L352.281,63.902 L355.846,59.505 L360.136,63.105 L356.448,67.355 L360.831,71.34 L357.009,75.431 C359.081,77.314 357.809,76.124 360.757,79.072 z z M142.804,82.637 L139.244,79.072 C142.192,76.124 140.92,77.314 142.992,75.431 L139.17,71.339 L143.554,67.355 L139.865,63.104 L144.155,59.505 L147.721,63.902 L143.722,67.202 L143.554,67.355 L147.224,71.584 L142.992,75.431 L146.431,79.114 L145.295,80.146 z M349.473,75.391 L349.317,75.248 L345.579,72.164 L348.753,68.25 C345.985,65.966 347.48,67.148 344.247,64.729 L347.613,60.255 C346.174,59.164 344.748,58.061 343.253,57.049 L346.485,52.44 L351.016,55.731 L347.613,60.255 C350.962,62.76 349.413,61.536 352.281,63.902 L348.753,68.25 L352.614,71.437 L352.777,71.584 z M150.528,75.39 L147.224,71.584 L147.387,71.437 L151.248,68.25 L147.721,63.902 C150.588,61.536 149.039,62.76 152.389,60.255 L148.985,55.731 L153.516,52.44 L156.749,57.049 C154.748,58.402 156.234,57.38 152.389,60.255 L155.755,64.729 C152.521,67.148 154.016,65.965 151.248,68.25 L154.422,72.163 L150.685,75.248 z M341.217,68.756 C337.624,66.068 339.013,67.024 337.143,65.76 L340.037,61.634 L335.298,58.432 L338.344,53.733 C336.308,52.358 337.811,53.355 333.743,50.883 L336.655,46.045 L341.404,49.012 L338.344,53.733 L343.253,57.049 L340.037,61.634 C341.969,62.939 340.534,61.953 344.247,64.729 z M158.784,68.756 L155.755,64.729 C159.467,61.952 158.032,62.939 159.964,61.634 L156.749,57.049 L161.658,53.733 L158.597,49.012 L163.347,46.044 L166.259,50.883 C162.19,53.355 163.693,52.358 161.658,53.733 L164.704,58.432 L159.964,61.634 L162.858,65.76 L162.149,66.24 z M332.555,62.661 C330.653,61.376 332.059,62.307 328.256,59.997 L330.855,55.68 C327.354,53.553 329.01,54.497 325.907,52.811 L328.618,47.911 L323.933,45.367 L323.859,45.331 L326.402,40.351 L331.345,42.98 L328.618,47.911 C331.833,49.658 330.117,48.68 333.743,50.883 L330.855,55.68 C334.784,58.067 333.331,57.104 335.298,58.432 z M167.446,62.661 L164.704,58.432 C166.67,57.104 165.218,58.067 169.146,55.68 L166.259,50.883 C169.884,48.68 168.169,49.658 171.384,47.911 L168.655,42.98 L173.6,40.351 L176.143,45.331 L176.068,45.367 L171.384,47.911 L174.095,52.811 C170.991,54.497 172.647,53.553 169.146,55.68 L171.745,59.997 L168.204,62.149 z M323.467,57.221 L319.089,54.843 L319.019,54.809 L321.311,50.32 L316.158,47.836 L318.521,42.759 C315.771,41.434 317.409,42.19 313.573,40.567 L315.776,35.386 L320.892,37.664 L318.521,42.759 L323.859,45.331 L321.311,50.32 L321.384,50.354 L325.907,52.811 z M176.535,57.221 L174.095,52.811 L178.617,50.354 L178.689,50.32 L176.143,45.331 L181.481,42.759 L179.109,37.663 L184.225,35.386 L186.429,40.567 C182.592,42.19 184.23,41.434 181.481,42.759 L183.843,47.836 L178.689,50.32 L180.981,54.809 L180.912,54.843 z M314.031,52.406 C311.461,51.168 312.992,51.874 309.407,50.357 L311.379,45.72 C307.033,43.881 308.815,44.56 306.083,43.56 L308.086,38.33 L303.003,36.469 L304.83,31.174 L310.093,33.09 L308.086,38.33 C310.916,39.366 309.07,38.663 313.573,40.567 L311.379,45.72 C315.084,47.287 313.502,46.557 316.158,47.836 z M185.97,52.406 L183.843,47.836 C186.499,46.557 184.917,47.287 188.621,45.72 L186.429,40.567 C190.931,38.663 189.085,39.366 191.915,38.33 L189.909,33.09 L195.171,31.174 L196.999,36.469 L191.915,38.33 L193.919,43.56 C191.186,44.56 192.967,43.881 188.621,45.72 L190.594,50.357 L187.546,51.646 z M304.28,48.267 L299.529,46.528 L301.175,41.763 C298.795,40.891 300.59,41.532 295.727,40.02 L297.359,34.663 C293.703,33.526 295.44,34.013 292.158,33.169 L293.617,27.737 L299,29.281 L297.359,34.663 C302.398,36.23 300.538,35.566 303.003,36.469 L301.175,41.763 L306.083,43.56 z M195.721,48.267 L193.919,43.56 L198.826,41.763 L196.999,36.469 C199.464,35.566 197.604,36.23 202.642,34.663 L201.001,29.28 L206.384,27.736 L207.843,33.169 C204.561,34.013 206.298,33.526 202.642,34.663 L204.275,40.019 C199.411,41.532 201.207,40.891 198.826,41.763 L200.471,46.527 z M294.256,44.841 C290.84,43.778 292.463,44.233 289.396,43.444 L290.703,38.577 L285.412,37.216 L285.159,37.164 L286.416,31.706 L281.113,30.621 L282.192,25.089 L287.669,26.254 L286.416,31.706 L286.676,31.759 L292.158,33.169 L290.703,38.577 C293.873,39.392 292.196,38.922 295.727,40.02 z z M205.745,44.84 L204.275,40.019 C207.806,38.922 206.128,39.392 209.298,38.577 L207.843,33.169 L213.325,31.759 L213.585,31.706 L212.332,26.254 L217.81,25.089 L218.889,30.621 L213.585,31.706 L214.842,37.164 L214.589,37.216 L209.298,38.577 L210.606,43.444 L208.455,43.998 z M284.029,42.077 L279.073,41.063 L280.039,36.117 C276.648,35.423 278.523,35.767 274.405,35.137 L275.276,29.607 C270.43,28.867 272.224,29.062 269.921,28.828 L270.61,23.246 L276.155,24.025 L275.276,29.607 C279.544,30.259 277.6,29.902 281.113,30.621 L280.039,36.117 L285.159,37.164 z M215.972,42.077 L214.842,37.164 L219.963,36.117 L218.889,30.621 C222.401,29.902 220.457,30.258 224.725,29.607 L223.846,24.025 L229.391,23.246 L230.081,28.828 C227.777,29.062 229.571,28.867 224.725,29.607 L225.597,35.137 C221.477,35.767 223.353,35.423 219.963,36.117 L220.928,41.063 z M273.621,40.115 C269.094,39.424 270.77,39.606 268.613,39.387 L269.234,34.385 L263.543,33.808 L264.026,28.229 C261.212,27.944 263.008,28.1 258.627,27.878 L258.928,22.214 L264.512,22.605 L264.026,28.229 L269.921,28.828 L269.234,34.385 C271.459,34.611 269.726,34.423 274.405,35.137 z M226.381,40.115 L225.597,35.137 C230.275,34.423 228.542,34.611 230.768,34.385 L230.081,28.828 L235.975,28.229 L235.49,22.605 L241.074,22.214 L241.375,27.878 C236.993,28.1 238.789,27.944 235.975,28.229 L236.459,33.808 L230.768,34.385 L231.388,39.387 L230.672,39.46 z M263.105,38.828 C260.475,38.561 262.157,38.707 258.059,38.5 L258.328,33.468 C256.424,33.35 254.52,33.257 252.614,33.233 L252.705,27.635 L250.001,27.6 L247.296,27.635 L247.387,33.233 C245.481,33.226 243.577,33.371 241.673,33.468 L241.942,38.5 C237.845,38.707 239.526,38.561 236.896,38.828 L236.459,33.808 C239.177,33.532 237.441,33.683 241.673,33.468 L241.375,27.878 C246.303,27.629 244.33,27.672 247.296,27.635 L247.202,22.001 L252.8,22.001 L252.705,27.635 C255.671,27.672 253.699,27.629 258.627,27.878 L258.328,33.468 C262.56,33.683 260.825,33.532 263.543,33.808 z M252.529,38.272 L250.001,38.241 L247.473,38.272 L247.387,33.233 C248.375,33.22 249.362,33.203 250.347,33.203 C252.218,33.229 251.464,33.218 252.614,33.233 z" fill="#000000"/>
    <path d="M250,28.382 C250,28.382 166,245.534 142,306.782 C220,212.126 280,212.126 358,306.782 C334,245.534 250,28.382 250,28.382 z" fill="#000000"/>
    <g>
      <path d="M120.346,204.899 L380.653,204.899 C388.3,204.899 394.5,212.959 394.5,222.9 L394.5,222.9 C394.5,232.84 388.3,240.901 380.653,240.901 L120.346,240.901 C112.699,240.901 106.5,232.84 106.5,222.9 L106.5,222.9 C106.5,212.959 112.699,204.899 120.346,204.899 z" fill="url(#Gradient_2)"/>
      <path d="M120.346,204.899 L380.653,204.899 C388.3,204.899 394.5,212.959 394.5,222.9 L394.5,222.9 C394.5,232.84 388.3,240.901 380.653,240.901 L120.346,240.901 C112.699,240.901 106.5,232.84 106.5,222.9 L106.5,222.9 C106.5,212.959 112.699,204.899 120.346,204.899 z" fill-opacity="0" stroke="#000000" stroke-width="0.562"/>
    </g>
    <g>
      <path d="M79.688,166.502 L421.313,166.502 C431.349,166.502 439.484,175.113 439.484,185.736 L439.484,185.736 C439.484,196.358 431.349,204.97 421.313,204.97 L79.688,204.97 C69.652,204.97 61.516,196.358 61.516,185.736 L61.516,185.736 C61.516,175.113 69.652,166.502 79.688,166.502 z" fill="url(#Gradient_3)"/>
      <path d="M79.688,166.502 L421.313,166.502 C431.349,166.502 439.484,175.113 439.484,185.736 L439.484,185.736 C439.484,196.358 431.349,204.97 421.313,204.97 L79.688,204.97 C69.652,204.97 61.516,196.358 61.516,185.736 L61.516,185.736 C61.516,175.113 69.652,166.502 79.688,166.502 z" fill-opacity="0" stroke="#000000" stroke-width="0.562"/>
    </g>
    <g>
      <path d="M41.357,94.5 L459.643,94.5 C476.686,94.5 490.5,110.618 490.5,130.5 L490.5,130.5 C490.5,150.382 476.686,166.5 459.643,166.5 L41.357,166.5 C24.316,166.5 10.5,150.382 10.5,130.5 L10.5,130.5 C10.5,110.618 24.316,94.5 41.357,94.5 z" fill="url(#Gradient_4)"/>
      <path d="M41.357,94.5 L459.643,94.5 C476.686,94.5 490.5,110.618 490.5,130.5 L490.5,130.5 C490.5,150.382 476.686,166.5 459.643,166.5 L41.357,166.5 C24.316,166.5 10.5,150.382 10.5,130.5 L10.5,130.5 C10.5,110.618 24.316,94.5 41.357,94.5 z" fill-opacity="0" stroke="#000000" stroke-width="0.562"/>
    </g>
    <path d="M108.352,177.721 L116.586,177.721 Q119.031,177.721 120.232,177.927 Q121.433,178.134 122.382,178.79 Q123.33,179.447 123.963,180.537 Q124.595,181.627 124.595,182.982 Q124.595,184.452 123.815,185.677 Q123.035,186.905 121.701,187.518 Q123.583,188.073 124.595,189.415 Q125.607,190.756 125.607,192.567 Q125.607,193.993 124.953,195.339 Q124.3,196.686 123.169,197.492 Q122.038,198.298 120.38,198.485 Q119.34,198.597 115.363,198.626 L108.352,198.626 L108.352,177.721 z M112.511,181.2 L112.511,186.034 L115.237,186.034 Q117.668,186.034 118.258,185.963 Q119.326,185.836 119.937,185.214 Q120.548,184.594 120.548,183.581 Q120.548,182.613 120.021,182.006 Q119.494,181.4 118.454,181.273 Q117.836,181.2 114.9,181.2 L112.511,181.2 z M112.511,189.513 L112.511,195.104 L116.361,195.104 Q118.609,195.104 119.213,194.976 Q120.141,194.804 120.724,194.142 Q121.307,193.478 121.307,192.367 Q121.307,191.425 120.857,190.768 Q120.408,190.113 119.558,189.813 Q118.708,189.513 115.869,189.513 L112.511,189.513 z M129.134,198.626 L129.134,177.721 L137.887,177.721 Q141.19,177.721 142.686,178.285 Q144.182,178.848 145.082,180.287 Q145.981,181.728 145.981,183.581 Q145.981,185.934 144.618,187.469 Q143.255,189 140.543,189.401 Q141.892,190.199 142.77,191.154 Q143.648,192.111 145.138,194.547 L147.653,198.626 L142.679,198.626 L139.672,194.077 Q138.07,191.639 137.48,191.005 Q136.89,190.37 136.229,190.135 Q135.569,189.899 134.136,189.899 L133.293,189.899 L133.293,198.626 L129.134,198.626 z M133.293,186.562 L136.37,186.562 Q139.363,186.562 140.107,186.305 Q140.852,186.049 141.274,185.421 Q141.695,184.794 141.695,183.852 Q141.695,182.797 141.14,182.148 Q140.585,181.5 139.573,181.329 Q139.068,181.258 136.539,181.258 L133.293,181.258 L133.293,186.562 z M149.901,198.626 L149.901,177.721 L165.175,177.721 L165.175,181.258 L154.06,181.258 L154.06,185.893 L164.402,185.893 L164.402,189.415 L154.06,189.415 L154.06,195.104 L165.568,195.104 L165.568,198.626 L149.901,198.626 z M187.671,198.626 L183.146,198.626 L181.348,193.878 L173.114,193.878 L171.413,198.626 L167.002,198.626 L175.024,177.721 L179.423,177.721 L187.671,198.626 z M180.013,190.355 L177.175,182.598 L174.392,190.355 L180.013,190.355 z M189.933,198.626 L189.933,177.721 L194.092,177.721 L194.092,187.003 L202.495,177.721 L208.087,177.721 L200.331,185.864 L208.509,198.626 L203.126,198.626 L197.464,188.816 L194.092,192.31 L194.092,198.626 L189.933,198.626 z M210.686,198.626 L210.686,177.721 L224.807,177.721 L224.807,181.258 L214.845,181.258 L214.845,186.205 L223.444,186.205 L223.444,189.742 L214.845,189.742 L214.845,198.626 L210.686,198.626 z M245.225,198.626 L240.699,198.626 L238.903,193.878 L230.667,193.878 L228.966,198.626 L224.556,198.626 L232.577,177.721 L236.977,177.721 L245.225,198.626 z M237.566,190.355 L234.729,182.598 L231.946,190.355 L237.566,190.355 z M246.376,191.825 L250.424,191.425 Q250.79,193.492 251.905,194.463 Q253.024,195.431 254.921,195.431 Q256.929,195.431 257.948,194.569 Q258.966,193.707 258.966,192.552 Q258.966,191.811 258.539,191.29 Q258.109,190.768 257.04,190.384 Q256.309,190.128 253.713,189.471 Q250.367,188.629 249.019,187.404 Q247.122,185.677 247.122,183.197 Q247.122,181.6 248.015,180.21 Q248.904,178.819 250.586,178.092 Q252.264,177.364 254.638,177.364 Q258.518,177.364 260.476,179.09 Q262.437,180.815 262.534,183.697 L258.378,183.881 Q258.109,182.27 257.23,181.564 Q256.352,180.858 254.595,180.858 Q252.784,180.858 251.758,181.613 Q251.098,182.099 251.098,182.912 Q251.098,183.653 251.715,184.181 Q252.504,184.85 255.538,185.579 Q258.572,186.305 260.028,187.082 Q261.48,187.86 262.304,189.207 Q263.126,190.555 263.126,192.538 Q263.126,194.334 262.143,195.902 Q261.157,197.472 259.361,198.235 Q257.56,198.998 254.878,198.998 Q250.97,198.998 248.879,197.165 Q246.785,195.333 246.376,191.825 z M271.262,198.626 L271.262,181.258 L265.148,181.258 L265.148,177.721 L281.518,177.721 L281.518,181.258 L275.422,181.258 L275.422,198.626 L271.262,198.626 z M280.887,194.619 L284.835,194.619 L284.835,197.487 Q284.835,199.225 284.54,200.23 Q284.243,201.237 283.422,202.035 Q282.601,202.834 281.335,203.29 L280.564,201.635 Q281.758,201.237 282.263,200.537 Q282.769,199.839 282.798,198.626 L280.887,198.626 L280.887,194.619 z M297.116,198.626 L297.116,177.892 L301.275,177.892 L301.275,195.104 L311.616,195.104 L311.616,198.626 L297.116,198.626 z M314.552,177.721 L318.711,177.721 L318.711,189.044 Q318.711,191.739 318.866,192.538 Q319.133,193.82 320.138,194.598 Q321.143,195.375 322.885,195.375 Q324.655,195.375 325.555,194.64 Q326.453,193.907 326.636,192.838 Q326.819,191.768 326.819,189.286 L326.819,177.721 L330.978,177.721 L330.978,188.701 Q330.978,192.465 330.641,194.02 Q330.304,195.575 329.397,196.645 Q328.492,197.714 326.974,198.348 Q325.456,198.983 323.011,198.983 Q320.06,198.983 318.536,198.292 Q317.012,197.599 316.126,196.494 Q315.241,195.389 314.96,194.178 Q314.552,192.381 314.552,188.873 L314.552,177.721 z M335.404,198.626 L335.404,177.721 L339.451,177.721 L347.882,191.681 L347.882,177.721 L351.747,177.721 L351.747,198.626 L347.573,198.626 L339.269,184.994 L339.269,198.626 L335.404,198.626 z M369.325,190.941 L373.357,192.238 Q372.43,195.66 370.272,197.321 Q368.116,198.983 364.8,198.983 Q360.697,198.983 358.055,196.139 Q355.413,193.293 355.413,188.358 Q355.413,183.14 358.069,180.253 Q360.725,177.364 365.052,177.364 Q368.832,177.364 371.193,179.632 Q372.598,180.973 373.301,183.483 L369.184,184.481 Q368.819,182.855 367.659,181.913 Q366.5,180.973 364.842,180.973 Q362.551,180.973 361.125,182.641 Q359.699,184.308 359.699,188.046 Q359.699,192.01 361.104,193.693 Q362.509,195.375 364.757,195.375 Q366.415,195.375 367.61,194.305 Q368.805,193.236 369.325,190.941 z M376.94,198.626 L376.94,177.721 L381.099,177.721 L381.099,185.948 L389.249,185.948 L389.249,177.721 L393.408,177.721 L393.408,198.626 L389.249,198.626 L389.249,189.486 L381.099,189.486 L381.099,198.626 L376.94,198.626 z" fill="#000000"/>
    <path d="M198.897,224.239 Q199.213,225.116 199.343,225.581 Q199.473,226.049 199.473,226.283 Q199.473,226.488 199.443,226.692 Q199.414,226.897 199.357,227.101 Q199.128,227.859 198.408,228.663 Q197.688,229.467 196.279,230.605 Q196.624,231.014 196.81,231.19 Q196.997,231.365 197.142,231.394 Q197.17,231.394 197.185,231.394 Q197.199,231.394 197.228,231.394 Q197.314,231.394 197.386,231.365 Q197.458,231.336 197.516,231.307 Q197.545,231.307 197.559,231.292 Q197.573,231.277 197.602,231.277 Q197.688,231.219 197.774,231.19 Q197.861,231.16 197.976,231.16 Q198.12,231.16 198.249,231.292 Q198.379,231.424 198.408,231.599 Q198.408,231.599 198.408,231.614 Q198.408,231.629 198.408,231.658 Q198.408,231.921 198.235,232.371 Q198.062,232.824 197.774,233.321 Q197.516,233.76 197.199,234.184 Q196.882,234.605 196.537,234.868 Q196.364,235.015 196.177,235.088 Q195.99,235.16 195.818,235.16 Q195.444,235.16 194.854,234.664 Q194.264,234.169 193.314,233.087 Q191.328,234.345 190.134,234.898 Q188.94,235.453 187.904,235.57 Q187.732,235.57 187.545,235.585 Q187.358,235.599 187.185,235.599 Q185.343,235.599 184.048,234.301 Q182.753,232.999 182.753,231.19 Q182.753,228.648 184.436,226.941 Q186.12,225.23 188.163,224.093 Q188.365,223.976 188.595,223.859 Q188.825,223.742 189.055,223.624 Q189.055,223.537 189.055,223.435 Q189.055,223.333 189.055,223.216 Q189.027,223.128 189.027,223.025 Q189.027,222.923 189.027,222.838 Q189.027,221.639 189.256,220.806 Q189.487,219.976 190.091,219.186 Q190.292,218.922 190.537,218.66 Q190.782,218.396 191.07,218.136 Q191.731,217.493 192.508,216.981 Q193.285,216.47 194.091,216.119 Q194.839,215.77 195.544,215.595 Q196.25,215.419 196.882,215.419 Q198.062,215.419 198.897,216.221 Q199.731,217.025 199.731,218.165 Q199.731,219.595 198.479,220.762 Q197.228,221.932 195.731,222.809 Q194.983,223.274 194.264,223.639 Q193.544,224.005 192.969,224.327 Q193.027,224.59 193.07,224.809 Q193.113,225.028 193.17,225.23 Q193.228,225.552 193.314,225.801 Q193.401,226.049 193.516,226.312 Q193.659,226.634 193.861,226.999 Q194.062,227.365 194.379,227.888 Q195.099,227.423 195.616,227.057 Q196.134,226.692 196.566,226.371 Q196.682,226.283 196.796,226.18 Q196.911,226.078 197.026,225.99 Q197.429,225.64 197.861,225.245 Q198.293,224.853 198.897,224.268 L198.897,224.239 z M189.688,226.254 Q189.084,226.663 188.624,226.985 Q188.163,227.306 187.818,227.596 Q187.472,227.918 187.185,228.239 Q186.897,228.561 186.638,228.941 Q186.609,228.97 186.581,229.014 Q186.552,229.058 186.523,229.117 Q186.206,229.613 185.99,230.064 Q185.775,230.517 185.775,230.692 Q185.775,231.014 186.077,231.204 Q186.379,231.394 186.868,231.394 Q187.185,231.394 187.472,231.365 Q187.761,231.336 188.019,231.307 Q188.71,231.19 189.458,230.868 Q190.207,230.546 191.271,229.932 Q190.984,229.35 190.796,228.926 Q190.61,228.502 190.436,228.152 Q190.408,228.093 190.379,228.035 Q190.35,227.976 190.35,227.918 Q190.207,227.57 190.048,227.189 Q189.89,226.809 189.688,226.283 L189.688,226.254 z M192.595,221.727 Q194.897,220.355 196.019,219.23 Q197.142,218.107 197.142,217.2 Q197.142,217.025 197.055,216.922 Q196.968,216.82 196.825,216.82 Q196.566,216.82 196.264,216.908 Q195.962,216.996 195.645,217.142 Q195.041,217.434 194.465,217.946 Q193.89,218.455 193.544,219.069 Q193.285,219.508 193.056,220.18 Q192.825,220.85 192.595,221.756 L192.595,221.727 z M210.957,214.227 L218.559,214.227 Q221.13,214.227 222.478,214.625 Q224.292,215.167 225.584,216.55 Q226.878,217.933 227.552,219.938 Q228.227,221.941 228.227,224.878 Q228.227,227.461 227.593,229.329 Q226.821,231.609 225.387,233.021 Q224.306,234.091 222.464,234.69 Q221.087,235.132 218.784,235.132 L210.957,235.132 L210.957,214.227 z M215.117,217.764 L215.117,231.609 L218.222,231.609 Q219.965,231.609 220.736,231.41 Q221.748,231.153 222.416,230.54 Q223.084,229.928 223.504,228.523 Q223.927,227.118 223.927,224.693 Q223.927,222.269 223.504,220.972 Q223.084,219.675 222.324,218.946 Q221.565,218.219 220.399,217.962 Q219.528,217.764 216.985,217.764 L215.117,217.764 z M231.626,235.132 L231.626,214.227 L235.786,214.227 L235.786,235.132 L231.626,235.132 z M239.791,235.132 L239.791,214.227 L243.836,214.227 L252.267,228.187 L252.267,214.227 L256.132,214.227 L256.132,235.132 L251.958,235.132 L243.654,221.5 L243.654,235.132 L239.791,235.132 z M260.572,235.132 L260.572,214.227 L264.62,214.227 L273.05,228.187 L273.05,214.227 L276.913,214.227 L276.913,235.132 L272.739,235.132 L264.437,221.5 L264.437,235.132 L260.572,235.132 z M281.312,235.132 L281.312,214.227 L296.585,214.227 L296.585,217.764 L285.472,217.764 L285.472,222.399 L295.813,222.399 L295.813,225.919 L285.472,225.919 L285.472,231.609 L296.979,231.609 L296.979,235.132 L281.312,235.132 z M300.519,235.132 L300.519,214.227 L309.273,214.227 Q312.575,214.227 314.072,214.79 Q315.568,215.354 316.468,216.792 Q317.366,218.233 317.366,220.087 Q317.366,222.439 316.003,223.974 Q314.641,225.506 311.929,225.907 Q313.278,226.705 314.156,227.66 Q315.034,228.614 316.523,231.053 L319.039,235.132 L314.065,235.132 L311.058,230.582 Q309.455,228.144 308.866,227.511 Q308.275,226.876 307.615,226.641 Q306.955,226.406 305.521,226.406 L304.678,226.406 L304.678,235.132 L300.519,235.132 z M304.678,223.068 L307.755,223.068 Q310.749,223.068 311.493,222.811 Q312.238,222.555 312.66,221.926 Q313.081,221.3 313.081,220.358 Q313.081,219.303 312.526,218.653 Q311.971,218.006 310.96,217.836 Q310.454,217.764 307.924,217.764 L304.678,217.764 L304.678,223.068 z" fill="#000000"/>
    <path d="M88.774,147.553 Q88.438,148.065 88.061,148.575 Q87.683,149.087 87.263,149.597 Q86.424,150.875 85.627,152.238 Q84.829,153.602 84.494,155.05 Q84.41,155.39 84.368,155.774 Q84.326,156.156 84.326,156.497 Q84.326,157.52 84.578,158.542 Q84.829,159.564 85.081,160.586 Q85.081,160.756 85.123,160.927 Q85.165,161.097 85.249,161.268 Q84.494,161.439 83.486,161.779 Q82.479,162.12 81.472,162.375 Q81.388,162.461 81.262,162.461 Q81.136,162.461 81.052,162.545 Q79.625,163.056 78.367,163.525 Q77.107,163.993 76.436,163.993 Q75.597,163.993 74.967,163.142 Q74.338,162.29 74.338,161.183 Q74.338,159.897 74.674,158.612 Q75.009,157.325 75.513,155.954 Q75.932,154.925 76.436,153.897 Q76.94,152.868 77.443,151.839 Q78.031,150.725 78.618,149.611 Q79.206,148.497 79.625,147.553 Q75.765,147.897 71.988,148.283 Q68.211,148.669 64.434,149.612 Q63.93,150.127 63.426,150.685 Q62.923,151.241 62.419,151.842 Q62.251,152.014 62.042,152.271 Q61.832,152.529 61.58,152.699 Q59.985,154.416 58.475,156.174 Q56.964,157.932 55.705,159.905 Q54.194,162.12 53.355,163.099 Q52.515,164.079 51.76,164.42 Q51.508,164.505 51.256,164.548 Q51.005,164.59 50.669,164.59 Q50.501,164.59 50.375,164.59 Q50.249,164.59 50.081,164.505 Q48.906,164.249 47.899,163.227 Q46.892,162.205 46.892,161.012 Q46.892,160.246 47.773,158.84 Q48.654,157.434 49.745,155.902 Q49.997,155.646 50.207,155.39 Q50.417,155.134 50.585,154.879 Q51.592,153.516 52.557,152.366 Q53.523,151.216 53.942,150.62 Q53.103,150.706 52.306,150.747 Q51.508,150.79 50.669,150.79 Q48.151,150.79 46.892,149.853 Q45.633,148.916 45.633,147.043 Q45.633,146.616 45.759,146.106 Q45.885,145.594 46.053,145.084 Q46.304,144.487 46.682,143.934 Q47.06,143.379 47.48,142.869 Q47.648,142.698 47.815,142.528 Q47.983,142.357 48.151,142.188 Q48.738,141.676 49.242,141.292 Q49.745,140.91 49.913,140.91 Q50.165,140.91 50.459,140.994 Q50.753,141.079 51.005,141.166 Q51.256,141.25 51.55,141.335 Q51.844,141.42 52.096,141.42 Q52.599,141.42 54.698,140.951 Q56.796,140.484 59.146,139.888 Q61.16,139.376 63.049,138.951 Q64.937,138.525 65.777,138.354 L73.918,129.921 L82.311,120.38 Q84.326,118.166 85.165,116.846 Q86.004,115.525 86.004,114.588 Q86.004,113.737 85.333,113.396 Q84.661,113.055 83.151,113.055 Q80.213,113.055 77.023,113.651 Q73.834,114.247 70.561,115.27 Q67.623,116.121 64.728,117.229 Q61.832,118.337 59.146,119.529 Q57.971,120.04 56.796,120.551 Q55.621,121.062 54.53,121.573 Q55.117,121.829 55.411,122.084 Q55.705,122.34 55.705,122.765 Q55.705,123.702 54.362,124.384 Q53.019,125.065 51.424,125.661 Q50.417,126.002 49.494,126.301 Q48.571,126.599 47.983,126.939 Q47.312,127.28 46.472,127.792 Q45.633,128.302 44.71,128.814 Q44.29,129.07 43.912,129.283 Q43.534,129.495 43.115,129.665 Q41.94,130.348 40.807,130.773 Q39.674,131.198 38.75,131.198 Q37.827,131.198 37.114,130.048 Q36.4,128.899 36.4,127.28 Q36.4,126.855 36.484,126.301 Q36.568,125.747 36.652,125.236 Q36.736,124.811 36.82,124.427 Q36.904,124.043 36.988,123.702 Q38.247,119.784 39.842,117.996 Q41.436,116.206 44.29,114.843 Q45.045,114.503 45.885,114.162 Q46.724,113.822 47.731,113.396 Q56.712,109.733 65.945,107.178 Q75.177,104.622 84.829,104.196 Q88.858,104.196 91.502,106.07 Q94.146,107.944 94.146,112.459 Q94.146,112.97 94.104,113.438 Q94.062,113.907 93.978,114.333 Q93.558,116.718 91.712,119.401 Q89.865,122.084 85.836,126.343 Q84.661,127.621 83.486,128.855 Q82.311,130.092 81.136,131.37 Q79.877,132.648 78.702,133.882 Q77.527,135.117 76.352,136.395 Q78.534,136.054 80.003,135.841 Q81.472,135.629 82.815,135.457 Q83.654,135.373 84.535,135.288 Q85.417,135.202 86.424,135.117 Q87.012,135.117 87.683,135.074 Q88.355,135.032 89.11,134.947 Q92.971,129.921 96.915,124.938 Q100.861,119.955 104.889,115.014 Q107.407,111.947 108.54,110.883 Q109.673,109.818 110.345,109.818 Q110.932,109.818 111.394,110.457 Q111.856,111.096 111.856,111.862 Q111.856,112.544 111.814,113.14 Q111.771,113.737 111.604,114.247 Q111.184,115.866 109.799,117.825 Q108.414,119.784 105.057,123.788 Q102.707,126.514 100.441,129.283 Q98.174,132.051 95.908,134.861 Q99.602,134.947 101.448,135.117 Q103.294,135.285 104.805,135.793 Q105.309,136.047 105.938,136.343 Q106.568,136.639 107.239,136.977 Q105.728,138.247 104.595,139.219 Q103.462,140.193 102.623,141.123 Q102.035,141.631 101.574,142.138 Q101.112,142.646 100.609,143.239 Q99.853,144.254 99.014,145.439 Q98.174,146.623 97.167,148.15 Q95.069,147.724 93.852,147.597 Q92.635,147.469 91.544,147.469 Q91.124,147.469 90.411,147.469 Q89.697,147.469 88.774,147.553 L88.774,147.553 z M175.896,145.509 L176.064,147.043 Q176.232,147.638 176.232,147.937 Q176.232,148.235 176.232,148.235 Q176.232,149.257 174.175,151.344 Q172.119,153.431 169.014,155.731 Q167.586,156.753 166.076,157.775 Q164.565,158.797 163.054,159.734 Q160.033,161.524 157.221,162.674 Q154.409,163.824 152.479,163.824 Q149.961,163.824 148.072,161.992 Q146.184,160.161 146.184,157.605 Q146.184,156.753 146.268,155.902 Q146.352,155.05 146.52,154.197 Q147.275,150.535 149.205,146.915 Q151.136,143.294 153.234,139.972 Q154.409,138.098 155.542,136.352 Q156.675,134.607 157.599,132.988 Q155.836,134.692 151.681,138.738 Q147.527,142.784 142.659,147.298 Q141.903,147.979 141.106,148.703 Q140.309,149.428 139.553,150.109 Q134.014,155.05 129.062,158.755 Q124.11,162.461 121.844,162.461 Q118.99,162.461 116.723,159.947 Q114.457,157.434 114.457,154.283 Q114.457,152.238 115.465,149.853 Q116.472,147.469 118.067,145.084 Q119.158,143.379 120.375,141.761 Q121.592,140.142 122.851,138.695 Q124.613,136.48 126.334,134.648 Q128.055,132.817 129.23,131.454 L139.05,120.465 Q139.805,119.614 140.183,119.06 Q140.56,118.506 140.56,118.166 Q140.56,118.081 140.56,118.038 Q140.56,117.996 140.56,117.996 Q140.477,117.74 140.225,117.484 Q139.973,117.229 139.721,117.229 Q138.462,117.229 134.433,119.273 Q130.405,121.318 125.536,123.788 Q124.949,124.129 124.361,124.427 Q123.774,124.724 123.186,124.98 Q118.906,127.195 114.919,128.814 Q110.932,130.432 108.582,130.432 Q107.659,130.432 107.113,129.964 Q106.568,129.495 106.568,128.729 Q106.568,126.939 107.743,124.555 Q108.918,122.17 111.771,118.251 Q112.779,116.803 113.576,115.824 Q114.374,114.843 115.045,114.162 Q115.633,113.651 116.178,113.183 Q116.723,112.714 117.395,112.288 Q117.647,112.118 117.941,111.947 Q118.234,111.777 118.57,111.607 Q119.074,111.266 119.661,110.968 Q120.249,110.67 120.92,110.414 Q123.438,109.222 126.712,108.157 Q129.985,107.092 133.426,106.155 Q137.539,105.133 141.316,104.452 Q145.093,103.77 147.611,103.77 Q150.045,103.77 151.472,105.516 Q152.898,107.263 152.898,110.244 Q152.898,110.584 152.898,110.883 Q152.898,111.181 152.814,111.522 Q152.563,114.077 150.842,116.846 Q149.121,119.614 145.512,123.788 Q144.673,124.724 141.945,127.877 Q139.217,131.029 136.028,134.861 Q135.692,135.288 135.399,135.67 Q135.105,136.054 134.769,136.395 Q131.496,140.484 128.894,144.104 Q126.292,147.724 126.292,148.916 Q126.292,149.428 126.837,149.853 Q127.383,150.279 127.971,150.279 Q130.153,150.279 136.406,145.169 Q142.659,140.057 149.709,133.498 Q150.464,132.732 151.262,132.008 Q152.059,131.283 152.814,130.602 Q159.277,124.47 164.649,119.018 Q170.021,113.566 171.699,111.692 Q173.21,109.988 174.259,109.307 Q175.308,108.625 176.232,108.625 Q177.658,108.625 178.624,110.201 Q179.589,111.777 179.589,114.077 Q179.589,116.206 175.938,121.318 Q172.287,126.429 167.838,132.307 Q167.502,132.817 167.125,133.329 Q166.747,133.839 166.327,134.351 Q162.383,139.717 159.235,144.743 Q156.088,149.768 156.088,152.75 Q156.088,154.112 156.885,155.093 Q157.683,156.072 158.858,156.072 Q160.452,156.072 162.299,155.262 Q164.145,154.453 166.16,153.175 Q167.251,152.494 168.342,151.728 Q169.433,150.962 170.44,150.109 Q172.035,148.831 173.462,147.638 Q174.889,146.447 175.896,145.594 L175.896,145.509 z M203.342,134.776 Q205.188,135.117 208.504,135.585 Q211.819,136.054 215.428,136.907 Q220.631,138.098 224.913,140.185 Q229.192,142.272 229.192,145.679 Q229.192,146.872 228.522,148.32 Q227.85,149.768 226.676,151.131 Q225.499,152.494 223.99,153.772 Q222.479,155.05 220.548,156.243 Q216.77,158.542 212.448,160.161 Q208.126,161.779 203.761,162.461 Q201.999,162.716 200.237,162.886 Q198.473,163.056 196.711,163.056 Q190.165,163.056 186.178,160.629 Q182.191,158.202 182.191,154.112 Q182.191,152.92 182.568,151.643 Q182.946,150.365 183.534,149.087 Q184.373,147.298 185.548,145.594 Q186.724,143.891 187.982,142.272 Q188.989,141.079 189.912,139.972 Q190.836,138.866 191.591,137.929 Q188.066,137.757 186.219,136.948 Q184.373,136.139 184.373,134.861 Q184.373,133.242 186.639,132.348 Q188.906,131.454 191.675,130.943 Q193.773,130.602 195.704,130.389 Q197.634,130.176 198.473,130.005 Q199.481,128.983 200.53,127.877 Q201.579,126.77 202.67,125.661 Q205.692,122.596 209.26,120.083 Q212.827,117.57 216.77,117.57 Q217.191,117.57 217.359,117.697 Q217.526,117.825 217.526,118.166 Q217.526,118.762 216.015,120.593 Q214.505,122.425 212.659,124.555 Q212.659,124.724 212.574,124.811 Q212.491,124.895 212.406,124.98 Q211.568,125.833 210.813,126.727 Q210.056,127.621 209.385,128.388 Q210.14,128.302 210.895,128.174 Q211.651,128.048 212.322,127.961 Q216.1,127.451 218.617,126.811 Q221.135,126.173 223.485,125.236 Q224.072,125.065 224.661,124.767 Q225.249,124.47 225.919,124.214 Q227.178,123.618 228.269,122.893 Q229.36,122.17 230.283,121.488 Q231.46,120.551 232.129,119.614 Q232.801,118.677 232.801,117.91 Q232.801,116.121 230.705,115.142 Q228.605,114.162 224.913,114.162 Q217.779,114.162 210.938,115.653 Q204.097,117.143 197.382,119.529 Q197.634,119.699 197.844,119.827 Q198.054,119.955 198.222,120.125 Q198.306,120.296 198.39,120.424 Q198.473,120.551 198.473,120.721 Q198.473,121.658 197.215,122.127 Q195.956,122.596 194.194,122.936 Q193.438,123.106 192.641,123.277 Q191.843,123.447 191.004,123.618 Q190.584,123.702 190.165,123.83 Q189.745,123.958 189.325,124.043 Q188.654,124.214 187.898,124.512 Q187.143,124.811 186.387,125.151 Q186.135,125.236 185.926,125.321 Q185.716,125.406 185.464,125.492 Q184.457,125.917 183.492,126.215 Q182.527,126.514 181.604,126.514 Q180.512,126.514 179.924,125.961 Q179.337,125.406 179.337,124.299 Q179.337,124.129 179.337,123.958 Q179.337,123.788 179.421,123.618 Q179.505,123.021 179.841,122.297 Q180.176,121.573 181.1,120.296 Q182.191,118.592 183.114,117.314 Q184.037,116.037 184.96,115.014 Q186.387,113.311 188.108,112.203 Q189.829,111.096 192.682,110.159 Q193.27,109.903 193.899,109.69 Q194.529,109.478 195.2,109.307 Q203.678,106.752 210.518,105.559 Q217.359,104.366 223.57,104.366 Q231.039,104.366 235.488,107.007 Q239.936,109.648 239.936,114.162 Q239.936,120.806 233.768,124.555 Q227.599,128.302 220.212,130.261 Q215.847,131.37 211.777,132.136 Q207.707,132.902 204.852,133.414 L203.342,134.776 L203.342,134.776 z M199.732,138.866 Q199.229,139.547 198.264,140.526 Q197.299,141.506 196.208,142.613 Q195.872,142.954 195.536,143.337 Q195.2,143.72 194.949,144.147 Q193.858,145.425 193.06,146.616 Q192.262,147.809 192.262,148.66 Q192.262,150.79 194.739,152.153 Q197.215,153.516 201.16,153.516 Q202.587,153.516 204.81,153.09 Q207.035,152.665 209.468,151.812 Q213.246,150.62 216.435,148.703 Q219.625,146.787 219.625,144.743 Q219.625,142.869 216.394,141.761 Q213.162,140.654 209.217,140.057 Q206.28,139.547 203.636,139.333 Q200.992,139.12 199.732,138.951 L199.732,138.866 z M272.586,128.899 Q273.341,128.302 274.096,127.621 Q274.851,126.939 275.609,126.258 Q280.307,121.829 283.204,117.783 Q286.099,113.737 286.099,111.437 Q286.099,110.584 285.595,110.074 Q285.091,109.562 284.253,109.562 Q281.903,109.562 277.58,112.075 Q273.258,114.588 267.803,119.273 Q265.871,120.892 263.688,122.936 Q261.506,124.98 259.241,127.365 Q255.549,131.198 252.064,135.798 Q248.583,140.398 246.4,145.084 Q245.141,147.724 244.426,150.365 Q243.714,153.006 243.714,155.475 Q243.714,159.649 245.979,162.12 Q248.247,164.59 252.021,164.59 Q255.213,164.59 258.654,163.525 Q262.096,162.461 265.62,160.756 Q269.23,158.883 272.837,156.497 Q276.447,154.112 279.805,151.557 Q282.489,149.513 284.925,147.553 Q287.358,145.594 289.373,143.891 Q289.456,144.316 289.456,144.7 Q289.456,145.084 289.456,145.509 Q289.456,147.384 287.735,149.597 Q286.016,151.812 281.734,155.475 Q270.991,164.505 262.683,168.807 Q254.372,173.108 247.406,173.108 Q240.357,173.108 236.033,168.934 Q231.71,164.761 231.71,157.605 Q231.71,153.09 233.81,147.638 Q235.907,142.188 239.768,136.566 Q242.286,132.732 245.517,129.027 Q248.748,125.321 252.526,121.914 Q254.204,120.38 256.429,118.549 Q258.654,116.718 261.255,114.843 Q263.52,113.225 265.956,111.65 Q268.389,110.074 270.822,108.625 Q274.684,106.496 278.335,105.133 Q281.985,103.77 285.008,103.77 Q288.954,103.77 291.176,105.857 Q293.401,107.944 293.401,111.607 Q293.401,114.418 291.932,117.868 Q290.464,121.318 288.03,124.895 Q285.512,128.558 282.321,132.051 Q279.133,135.542 275.774,138.439 Q271.745,141.847 267.971,144.019 Q264.193,146.191 261.674,146.191 Q259.66,146.191 258.443,145.084 Q257.227,143.976 257.227,142.101 Q257.227,141.506 257.438,140.866 Q257.645,140.228 257.982,139.547 Q258.4,138.779 258.991,138.013 Q259.577,137.247 260.246,136.651 L267.549,130.005 L270.235,127.536 Q270.321,127.536 270.404,127.451 Q270.489,127.365 270.654,127.28 Q270.908,127.11 271.201,126.983 Q271.495,126.855 271.663,126.855 Q272.082,126.855 272.461,127.238 Q272.837,127.621 272.837,128.048 Q272.837,128.217 272.797,128.43 Q272.754,128.643 272.586,128.983 L272.586,128.899 z M309.852,144.231 L291.974,162.12 Q289.96,164.249 288.618,165.271 Q287.273,166.293 286.099,166.634 Q285.68,166.805 285.259,166.848 Q284.84,166.89 284.336,166.89 Q283.076,166.89 282.407,166.421 Q281.734,165.953 281.734,165.101 Q281.734,163.993 282.868,162.248 Q284.001,160.502 285.763,158.627 Q286.686,157.69 287.735,156.753 Q288.786,155.816 289.877,154.965 Q290.296,154.624 290.674,154.368 Q291.051,154.112 291.303,153.857 Q291.555,153.687 291.849,153.516 Q292.142,153.346 292.393,153.175 Q293.065,152.835 293.905,152.452 Q294.744,152.068 296.003,151.557 L302.466,144.231 L297.934,144.401 Q297.681,144.487 297.347,144.487 Q297.011,144.487 296.675,144.401 Q295.835,144.316 295.165,143.934 Q294.492,143.55 294.492,142.613 Q294.492,141.676 295.29,140.611 Q296.088,139.547 298.353,137.417 Q299.108,136.735 299.78,136.139 Q300.452,135.542 301.122,135.032 Q303.305,133.329 305.697,132.348 Q308.089,131.37 311.362,131.37 Q312.034,131.37 312.37,131.498 Q312.706,131.624 312.706,131.965 Q312.706,132.561 311.783,132.774 Q310.859,132.988 309.684,133.158 Q309.684,133.158 309.642,133.158 Q309.601,133.158 309.516,133.158 Q308.425,133.242 307.544,133.414 Q306.663,133.583 306.663,134.18 Q306.663,134.52 306.998,134.776 Q307.333,135.032 307.921,135.032 Q308.761,135.032 309.642,134.989 Q310.524,134.947 311.362,134.861 Q311.783,134.861 312.244,134.819 Q312.706,134.776 313.125,134.776 Q315.895,132.392 319.126,129.538 Q322.358,126.684 325.799,123.788 Q326.89,122.851 328.024,121.914 Q329.157,120.977 330.331,120.04 Q334.109,116.888 337.801,114.077 Q341.494,111.266 344.768,109.222 Q348.125,106.922 350.181,105.857 Q352.238,104.792 353.329,104.792 Q354.42,104.792 355.301,105.687 Q356.183,106.581 356.267,107.688 Q356.267,107.774 356.267,107.816 Q356.267,107.859 356.267,107.944 Q356.267,108.2 356.267,108.498 Q356.267,108.796 356.183,109.051 Q356.098,109.818 355.637,110.84 Q355.175,111.862 354.168,113.651 L343.508,132.648 L348.209,132.476 Q348.293,132.476 348.334,132.476 Q348.377,132.476 348.461,132.476 Q348.713,132.476 348.922,132.476 Q349.133,132.476 349.384,132.561 Q349.72,132.648 350.056,132.732 Q350.391,132.817 350.81,132.988 Q350.056,133.839 349.51,134.564 Q348.964,135.288 348.461,135.969 Q348.293,136.224 348.083,136.523 Q347.873,136.82 347.705,137.161 Q347.034,138.183 346.278,139.419 Q345.523,140.654 344.516,142.613 L337.801,142.869 Q337.465,143.55 336.752,144.7 Q336.038,145.85 335.283,147.213 Q335.115,147.469 334.989,147.638 Q334.863,147.809 334.78,148.065 Q333.856,149.597 333.186,151.003 Q332.513,152.409 332.513,153.09 Q332.513,153.516 332.849,153.9 Q333.186,154.283 333.689,154.453 Q333.773,154.453 333.899,154.496 Q334.024,154.538 334.109,154.538 Q335.032,154.538 336.374,153.687 Q337.718,152.835 341.326,149.938 L342.838,152.068 Q341.914,153.006 340.823,154.071 Q339.732,155.134 338.557,156.243 Q336.206,158.287 333.562,160.161 Q330.918,162.034 328.233,162.631 Q327.645,162.716 327.1,162.801 Q326.555,162.886 325.966,162.886 Q324.205,162.886 322.946,161.608 Q321.687,160.331 321.687,158.542 Q321.687,157.775 321.813,157.009 Q321.938,156.243 322.106,155.475 Q322.61,153.431 323.616,151.472 Q324.624,149.513 325.715,147.724 Q326.302,146.616 326.89,145.637 Q327.478,144.657 327.981,143.72 L309.852,144.231 L309.852,144.231 z M334.192,132.988 L345.607,113.651 Q342.334,116.121 339.9,117.996 Q337.465,119.87 335.199,121.658 Q334.78,121.999 334.318,122.383 Q333.856,122.765 333.436,123.106 Q330.835,125.236 328.024,127.792 Q325.212,130.348 321.267,133.924 L334.192,132.988 L334.192,132.988 z M381.362,115.525 Q375.654,116.121 369.948,117.016 Q364.24,117.91 358.784,119.699 Q356.434,120.551 355.385,120.806 Q354.336,121.062 353.497,121.147 Q353.329,121.147 353.203,121.147 Q353.078,121.147 352.909,121.147 Q352.322,121.147 351.986,120.934 Q351.65,120.721 351.65,120.38 Q351.65,119.614 352.406,118.166 Q353.161,116.718 354.168,115.099 Q354.42,114.759 354.63,114.46 Q354.84,114.162 355.008,113.822 Q356.183,112.118 357.19,110.797 Q358.197,109.478 358.365,109.307 Q360.631,107.348 367.472,105.772 Q374.312,104.196 382.034,103.77 Q383.293,103.685 384.468,103.642 Q385.642,103.6 386.818,103.6 Q388.076,103.6 389.294,103.642 Q390.511,103.685 391.77,103.77 Q399.492,104.281 405.955,107.646 Q412.417,111.011 412.417,120.551 Q412.417,131.88 403.898,138.482 Q395.379,145.084 385.14,147.469 Q382.118,148.15 379.138,148.491 Q376.159,148.831 373.389,148.831 Q373.137,148.831 372.884,148.831 Q372.633,148.831 372.382,148.831 Q371.123,148.831 369.443,148.703 Q367.766,148.575 364.324,148.235 L360.799,153.857 Q361.638,154.112 362.015,154.538 Q362.394,154.965 362.394,155.561 Q362.394,156.072 361.512,157.562 Q360.631,159.053 359.372,160.756 Q358.868,161.524 358.28,162.205 Q357.693,162.886 357.106,163.568 Q356.015,164.675 355.008,165.399 Q354.001,166.123 353.245,166.123 Q351.902,166.123 351.146,165.314 Q350.391,164.505 350.391,163.056 Q350.391,161.693 351.231,159.606 Q352.069,157.52 353.329,155.305 Q353.665,154.624 354.042,154.027 Q354.42,153.431 354.756,152.835 Q355.847,151.046 356.812,149.513 Q357.777,147.979 358.449,146.872 Q357.442,146.191 356.77,145.594 Q356.098,144.998 355.679,144.487 Q355.259,143.806 355.05,143.125 Q354.84,142.442 354.84,141.506 Q354.84,139.972 355.721,138.779 Q356.603,137.588 358.868,136.48 Q360.379,135.713 362.645,134.947 Q364.912,134.18 368.101,133.242 L381.362,115.525 L381.362,115.525 z M386.146,115.099 Q386.063,116.377 385.936,117.101 Q385.811,117.825 385.391,118.506 Q385.307,118.677 385.181,118.805 Q385.055,118.933 384.971,119.103 L375.571,132.051 Q376.242,132.051 376.872,131.965 Q377.501,131.88 378.172,131.795 Q378.76,131.795 379.432,131.752 Q380.103,131.71 380.691,131.71 Q381.278,131.71 381.656,131.965 Q382.034,132.22 382.034,132.648 Q382.034,132.988 381.656,133.242 Q381.278,133.498 380.859,133.669 Q379.935,133.924 379.054,134.138 Q378.172,134.351 377.249,134.607 Q376.326,134.776 375.445,135.032 Q374.564,135.288 373.641,135.542 L371.794,138.269 Q374.396,138.61 375.781,138.695 Q377.165,138.779 378.257,138.779 Q378.425,138.779 378.551,138.779 Q378.677,138.779 378.76,138.779 Q380.355,138.779 382.034,138.61 Q383.712,138.439 385.391,138.098 Q390.428,136.991 395.086,134.733 Q399.744,132.476 402.429,129.495 Q403.185,128.643 403.856,127.579 Q404.527,126.514 405.115,125.321 Q405.703,124.129 406.039,123.021 Q406.374,121.914 406.374,121.062 Q406.374,118.677 402.933,117.527 Q399.492,116.377 395.463,115.866 Q392.861,115.525 390.428,115.397 Q387.993,115.27 386.399,115.184 Q386.314,115.184 386.272,115.184 Q386.23,115.184 386.146,115.184 L386.146,115.099 z M456.567,115.781 Q455.558,115.951 454.508,116.037 Q453.461,116.121 452.453,116.206 Q447.25,116.718 442.17,117.783 Q437.093,118.847 432.394,121.062 Q431.974,121.233 431.093,121.701 Q430.212,122.17 429.288,122.765 Q428.617,123.192 427.987,123.661 Q427.358,124.129 426.937,124.639 Q426.435,125.065 426.183,125.492 Q425.93,125.917 425.93,126.343 Q425.93,127.024 426.518,127.536 Q427.106,128.048 428.365,128.558 Q429.288,128.899 430.506,129.239 Q431.723,129.58 433.317,130.005 L442.128,131.88 Q443.639,132.307 445.527,132.817 Q447.416,133.329 449.433,134.01 Q453.376,135.373 456.69,137.801 Q460.008,140.228 460.008,144.147 Q460.008,153.175 448.675,158.244 Q437.346,163.312 417.118,163.312 Q411.578,163.312 408.598,162.12 Q405.619,160.927 405.619,158.712 Q405.619,158.031 405.955,157.137 Q406.291,156.243 406.794,155.305 Q407.381,154.197 408.179,153.175 Q408.976,152.153 409.815,151.387 Q410.235,150.962 410.697,150.706 Q411.158,150.45 411.578,150.279 Q413.425,149.597 414.936,149.129 Q416.446,148.66 416.949,148.66 Q417.369,148.66 417.495,148.788 Q417.62,148.916 417.62,149.343 Q417.62,149.853 417.118,150.322 Q416.614,150.79 416.026,151.131 Q415.69,151.387 415.355,151.6 Q415.019,151.812 414.767,151.983 Q416.949,152.068 418.377,152.111 Q419.803,152.153 420.475,152.153 Q421.901,152.153 423.372,152.111 Q424.84,152.068 426.265,151.983 Q432.394,151.643 438.435,150.279 Q444.481,148.916 449.934,145.935 Q450.607,145.594 451.068,145.169 Q451.529,144.743 451.866,144.231 Q451.951,144.06 452.032,143.806 Q452.116,143.55 452.116,143.379 Q452.116,142.869 451.529,142.272 Q450.943,141.676 449.85,141.079 Q448.088,140.057 445.361,139.163 Q442.634,138.269 439.528,137.673 L425.677,135.032 Q421.062,134.266 419.09,132.561 Q417.118,130.858 417.118,127.621 Q417.118,126.599 417.284,125.321 Q417.454,124.043 417.789,122.765 Q418.125,121.147 418.713,119.571 Q419.3,117.996 419.888,116.888 Q422.07,113.396 427.609,110.84 Q433.148,108.285 439.359,106.752 Q444.145,105.559 448.551,104.963 Q452.956,104.366 455.894,104.366 Q462.943,104.366 465.672,105.261 Q468.402,106.155 468.402,108.54 Q468.402,112.544 467.1,114.46 Q465.798,116.377 462.02,117.825 Q461.855,117.91 461.684,117.953 Q461.519,117.996 461.348,118.081 Q460.596,118.337 459.461,118.975 Q458.327,119.614 457.068,120.296 Q456.985,120.38 456.903,120.424 Q456.818,120.465 456.732,120.465 Q455.056,121.488 453.627,122.297 Q452.202,123.106 451.866,123.106 Q451.362,123.106 450.943,122.765 Q450.521,122.425 450.521,121.914 Q450.521,121.829 450.521,121.743 Q450.521,121.658 450.607,121.573 Q450.692,121.233 450.9,120.934 Q451.109,120.636 451.529,120.296 L456.567,115.781 L456.567,115.781 z" fill="#000000"/>
  </g>
  <g id="Layer 2"/>
  <defs>
    <linearGradient id="Gradient_1" gradientUnits="userSpaceOnUse" x1="250.5" y1="10.5" x2="250.5" y2="370.5">
      <stop offset="0" stop-color="#FFFFFF"/>
      <stop offset="1" stop-color="#D4D4D4"/>
    </linearGradient>
    <linearGradient id="Gradient_2" gradientUnits="userSpaceOnUse" x1="250.5" y1="204.899" x2="250.5" y2="240.901">
      <stop offset="0" stop-color="#FFFFFF"/>
      <stop offset="1" stop-color="#D4D4D4"/>
    </linearGradient>
    <linearGradient id="Gradient_3" gradientUnits="userSpaceOnUse" x1="250.5" y1="166.502" x2="250.5" y2="204.97">
      <stop offset="0" stop-color="#FFFFFF"/>
      <stop offset="1" stop-color="#D4D4D4"/>
    </linearGradient>
    <linearGradient id="Gradient_4" gradientUnits="userSpaceOnUse" x1="250.5" y1="94.5" x2="250.5" y2="166.5">
      <stop offset="0" stop-color="#FFFFFF"/>
      <stop offset="1" stop-color="#D4D4D4"/>
    </linearGradient>
  </defs>
</svg>
