<?xml version="1.0" encoding="UTF-8"?>
<!DOCTYPE svg PUBLIC "-//W3C//DTD SVG 1.1//EN" "http://www.w3.org/Graphics/SVG/1.1/DTD/svg11.dtd">
<svg version="1.1" xmlns="http://www.w3.org/2000/svg" xmlns:xlink="http://www.w3.org/1999/xlink" x="0px" y="0px" width="60" height="30" viewBox="0, 0, 60, 30">
  <g id="Layer 1">
    <path d="M5,19.39 Q5,19.19 5.188,19.061 Q5.295,18.59 5.71,18.59 L6.233,18.59 Q6.34,18.148 6.495,17.741 Q6.649,17.334 6.783,17.02 L7.118,16.32 L7.064,16.078 Q7.332,15.521 7.882,14.921 Q8.432,14.322 9.102,13.787 Q9.772,13.251 10.489,12.809 Q11.206,12.366 11.836,12.109 Q13.298,11.524 14.832,11.26 Q16.367,10.996 17.735,10.939 L17.855,11.081 L18.097,11.081 L18.231,10.91 Q18.445,10.882 18.68,10.882 Q18.914,10.882 19.142,10.882 L19.196,10.996 L19.906,10.967 L19.933,11.053 L20.684,11.053 L20.71,10.91 L20.952,10.91 L20.952,10.882 Q20.952,10.796 21.059,10.796 Q21.193,10.796 21.193,10.882 L21.193,10.939 L21.26,10.939 L21.662,10.325 L21.917,10.325 L21.971,10.211 L22.105,10.211 L21.743,10.853 L24.075,6.784 L24.464,6.342 Q24.651,6.256 25.214,6.035 Q25.777,5.814 26.783,5.585 Q27.788,5.357 29.283,5.178 Q30.777,5 32.842,5 Q34.906,5 36.642,5.35 Q38.378,5.699 39.651,6.113 Q41.139,6.613 42.306,7.198 L42.453,7.17 L42.534,7.398 Q42.775,7.57 43.177,7.877 Q43.579,8.183 44.042,8.533 Q44.504,8.883 45.013,9.268 Q45.523,9.654 45.938,9.996 Q46.434,10.439 46.729,10.667 L46.836,10.582 L46.944,10.882 L47.936,11.752 L47.962,11.867 Q48.512,12.309 49.115,12.951 Q49.718,13.594 50.268,14.179 Q50.898,14.879 51.501,15.607 Q51.769,15.721 52.024,15.849 Q52.239,15.935 52.42,16.021 Q52.601,16.106 52.654,16.135 Q52.761,16.192 52.822,16.356 Q52.882,16.52 52.909,16.577 Q52.962,16.663 52.882,16.749 Q52.855,16.806 52.828,16.806 L52.386,16.963 L52.145,17.191 L52.574,18.862 L54.303,18.862 Q54.745,18.862 54.826,19.333 Q54.987,19.418 55,19.618 Q55,19.818 54.826,19.918 Q54.745,20.418 54.303,20.403 L52.962,20.403 L53.177,21.174 L53.807,21.759 L53.753,21.874 L54.692,21.874 L54.692,22.273 L52.802,22.273 Q52.748,22.473 52.547,22.488 Q52.386,22.488 52.332,22.273 L51.756,22.273 Q51.622,22.445 51.428,22.566 Q51.233,22.687 51.019,22.687 Q50.71,22.687 50.476,22.495 Q50.241,22.302 50.134,21.988 Q50,22.074 49.832,22.102 Q49.665,22.131 49.531,22.159 Q49.37,22.188 49.196,22.188 L47.064,22.188 Q46.595,23.415 45.536,24.208 Q44.477,25 43.164,25 Q41.823,25 40.764,24.208 Q39.705,23.415 39.236,22.188 L35.885,22.188 Q35.777,22.188 35.65,22.188 Q35.523,22.188 35.362,22.245 Q35.282,22.273 35.174,22.288 Q35.067,22.302 34.946,22.345 Q34.839,22.373 34.732,22.373 L29.625,22.373 Q29.357,22.373 29.082,22.338 Q28.807,22.302 28.66,22.216 Q28.579,22.159 28.539,22.131 Q28.499,22.102 28.445,22.102 L28.365,22.102 L17.359,22.102 Q16.89,23.301 15.858,24.051 Q14.826,24.8 13.512,24.8 Q12.775,24.8 12.098,24.55 Q11.421,24.3 10.885,23.844 Q10.349,23.387 9.966,22.759 Q9.584,22.131 9.424,21.403 L8.981,21.403 Q8.981,21.517 8.914,21.588 Q8.847,21.66 8.794,21.717 Q8.686,21.802 8.592,21.845 L7.721,21.845 L7.44,21.688 L7.038,21.688 Q6.823,21.688 6.729,21.488 Q6.676,21.374 6.649,21.26 Q6.515,21.203 6.408,21.046 Q6.3,20.903 6.213,20.696 Q6.126,20.489 6.072,20.146 L5.71,20.146 Q5.322,20.146 5.188,19.704 Q5,19.618 5,19.39 z M22.869,10.639 L23.043,10.696 L22.989,10.939 Q22.936,11.138 23.016,11.224 Q23.07,11.31 23.298,11.388 Q23.525,11.467 23.834,11.467 L23.391,10.468 L23.391,10.382 Q23.391,10.325 23.472,10.268 Q23.579,10.211 23.646,10.268 L23.7,10.325 L24.303,11.667 L24.437,11.667 L25.147,8.098 Q24.598,8.241 24.383,8.405 Q24.169,8.569 24.048,8.712 Q23.834,8.911 23.479,9.497 Q23.123,10.082 22.869,10.639 z M24.544,11.667 L24.571,11.667 Q24.571,11.638 24.625,11.581 Q24.678,11.467 24.826,11.467 L24.96,11.467 L25.536,7.955 Q25.456,7.984 25.389,7.998 Q25.322,8.012 25.228,8.041 L24.544,11.667 z M25.121,11.495 Q25.174,11.495 25.235,11.495 Q25.295,11.495 25.349,11.524 L25.952,7.869 Q25.898,7.898 25.824,7.898 Q25.751,7.898 25.697,7.926 L25.121,11.495 z M25.456,11.524 Q25.483,11.524 25.496,11.538 Q25.509,11.552 25.536,11.552 L25.563,11.552 L25.67,11.724 L25.67,11.781 L28.995,11.781 Q29.048,11.667 29.102,11.552 Q29.156,11.438 29.182,11.41 Q29.182,11.353 29.229,11.146 Q29.276,10.939 29.276,10.796 Q29.276,10.739 29.256,10.503 Q29.236,10.268 29.296,9.989 Q29.357,9.711 29.517,9.418 Q29.678,9.126 30.013,8.954 Q30.174,8.869 30.335,8.826 Q30.67,8.769 30.912,9.154 Q31.046,9.04 31.166,8.911 Q31.273,8.826 31.394,8.74 Q31.515,8.655 31.662,8.655 Q31.796,8.655 31.917,8.74 Q32.038,8.826 32.091,8.911 L32.091,8.269 Q32.091,8.126 32.038,7.926 Q31.984,7.727 31.93,7.655 Q31.903,7.627 31.796,7.57 Q31.689,7.512 31.314,7.47 Q31.032,7.441 30.563,7.441 Q30.402,7.441 30.228,7.441 Q29.517,7.455 28.284,7.541 Q27.574,7.598 27.038,7.691 Q26.501,7.784 26.059,7.841 L25.456,11.524 z M31.743,11.781 Q31.903,11.752 31.984,11.695 Q32.038,11.638 32.038,11.567 Q32.038,11.495 32.064,11.438 Q32.064,11.353 32.091,11.253 L32.091,11.053 L31.743,11.781 z M33.19,11.21 Q33.177,11.31 33.177,11.395 Q33.177,11.552 33.217,11.638 Q33.244,11.752 33.525,11.809 Q33.633,11.838 33.767,11.838 L33.968,11.838 L33.217,9.768 L33.217,10.796 Q33.217,10.896 33.19,11.21 z M33.217,9.468 L34.075,11.838 L40.08,11.838 Q40.496,11.838 40.717,11.709 Q40.938,11.581 41.059,11.403 Q41.18,11.224 41.206,11.039 Q41.233,10.853 41.233,10.696 Q41.233,10.111 40.731,9.661 Q40.228,9.211 39.457,8.876 Q38.686,8.54 37.795,8.305 Q36.903,8.069 36.106,7.941 Q35.308,7.812 34.745,7.734 Q34.182,7.655 34.102,7.655 Q33.861,7.655 33.639,7.691 Q33.418,7.727 33.338,7.784 Q33.231,7.898 33.217,8.012 Q33.204,8.055 33.204,8.098 Q33.204,8.141 33.217,8.183 L33.217,9.468 z M42.56,7.598 Q42.56,8.126 42.942,8.74 Q43.324,9.354 43.834,9.897 Q44.343,10.439 44.853,10.803 Q45.362,11.167 45.603,11.196 Q45.71,11.21 45.804,11.21 Q46.072,11.21 46.26,11.081 Q46.501,10.91 46.595,10.796 Q46.354,10.567 45.952,10.239 Q45.55,9.911 45.08,9.525 Q44.477,9.054 43.874,8.59 Q43.271,8.126 42.828,7.812 Q42.721,7.727 42.56,7.598 z" fill="#000000"/>
  </g>
  <defs/>
</svg>
